<?xml version="1.0" encoding="UTF-8" standalone="no"?>
<!-- Created with Inkscape (http://www.inkscape.org/) -->

<svg
   width="79mm"
   height="70mm"
   viewBox="0 0 79 70"
   version="1.1"
   id="svg1007"
   inkscape:version="1.1.2 (b8e25be833, 2022-02-05)"
   sodipodi:docname="frontend.svg"
   xmlns:inkscape="http://www.inkscape.org/namespaces/inkscape"
   xmlns:sodipodi="http://sodipodi.sourceforge.net/DTD/sodipodi-0.dtd"
   xmlns="http://www.w3.org/2000/svg"
   xmlns:svg="http://www.w3.org/2000/svg">
  <sodipodi:namedview
     id="namedview1009"
     pagecolor="#ffffff"
     bordercolor="#666666"
     borderopacity="1.0"
     inkscape:pageshadow="2"
     inkscape:pageopacity="0.0"
     inkscape:pagecheckerboard="0"
     inkscape:document-units="mm"
     showgrid="false"
     inkscape:zoom="2.0107307"
     inkscape:cx="120.10559"
     inkscape:cy="127.06823"
     inkscape:window-width="1920"
     inkscape:window-height="991"
     inkscape:window-x="-9"
     inkscape:window-y="-9"
     inkscape:window-maximized="1"
     inkscape:current-layer="layer1" />
  <defs
     id="defs1004" />
  <g
     inkscape:label="Camada 1"
     inkscape:groupmode="layer"
     id="layer1">
    <path
       id="rect8000-5"
       style="fill:none;stroke:#ffbd59;stroke-width:1.23424;stroke-miterlimit:4;stroke-dasharray:none"
       d="m 17.07291,14.391471 c 3.16795,0 5.718331,1.76477 5.718331,3.95687 0,2.19208 -2.550381,3.95684 -5.718331,3.95684 -3.167949,0 -5.718331,-1.76476 -5.718331,-3.95684 0,-2.1921 2.550382,-3.95687 5.718331,-3.95687 z" />
    <path
       id="rect8000-8"
       style="fill:#ffbd59;fill-opacity:1;stroke:#ffbd59;stroke-width:0.98909;stroke-miterlimit:4;stroke-dasharray:none"
       d="m 12.377172,5.5738627 c 0.929776,0 1.678302,0.51795 1.678302,1.16132 0,0.6433698 -0.748526,1.1613195 -1.678302,1.1613195 -0.929777,0 -1.678302,-0.5179497 -1.678302,-1.1613195 0,-0.64337 0.748525,-1.16132 1.678302,-1.16132 z" />
    <path
       style="fill:none;stroke:#ffbd59;stroke-width:1.23424;stroke-linecap:butt;stroke-linejoin:miter;stroke-miterlimit:4;stroke-dasharray:none;stroke-opacity:1"
       d="M 4.0756275,10.213041 H 74.687912"
       id="path1991" />
    <path
       id="path2158"
       style="fill:#ffbd59;fill-opacity:1;stroke:#ffbd59;stroke-width:0.98909;stroke-miterlimit:4;stroke-dasharray:none"
       d="m 17.839511,5.5738627 c 0.929777,0 1.678302,0.51795 1.678302,1.16132 0,0.6433698 -0.748525,1.1613195 -1.678302,1.1613195 -0.929776,0 -1.678302,-0.5179497 -1.678302,-1.1613195 0,-0.64337 0.748526,-1.16132 1.678302,-1.16132 z" />
    <path
       id="path2172"
       style="fill:#ffbd59;fill-opacity:1;stroke:#ffbd59;stroke-width:0.98909;stroke-miterlimit:4;stroke-dasharray:none"
       d="m 23.195694,5.5738627 c 0.929777,0 1.678302,0.51795 1.678302,1.16132 0,0.6433698 -0.748525,1.1613195 -1.678302,1.1613195 -0.929777,0 -1.678302,-0.5179497 -1.678302,-1.1613195 0,-0.64337 0.748525,-1.16132 1.678302,-1.16132 z" />
    <path
       style="fill:none;stroke:#000000;stroke-width:0.352639px;stroke-linecap:butt;stroke-linejoin:miter;stroke-opacity:1"
       d="M 4.1412525,18.397341 H 11.425602"
       id="path2487" />
    <path
       style="fill:none;stroke:#ffbd59;stroke-width:1.23424;stroke-linecap:butt;stroke-linejoin:miter;stroke-miterlimit:4;stroke-dasharray:none;stroke-opacity:1"
       d="M 4.1412525,18.397341 H 11.425602"
       id="path2578" />
    <path
       style="fill:none;stroke:#ffbd59;stroke-width:1.23424;stroke-linecap:butt;stroke-linejoin:miter;stroke-miterlimit:4;stroke-dasharray:none;stroke-opacity:1"
       d="M 9.6209243,26.885101 H 25.066676"
       id="path2578-4" />
    <path
       style="fill:none;stroke:#ffbd59;stroke-width:1.23424;stroke-linecap:butt;stroke-linejoin:miter;stroke-miterlimit:4;stroke-dasharray:none;stroke-opacity:1"
       d="M 22.851499,18.397341 H 74.498202"
       id="path2613" />
    <path
       style="fill:none;stroke:#ffbd59;stroke-width:1.23424;stroke-linecap:butt;stroke-linejoin:miter;stroke-miterlimit:4;stroke-dasharray:none;stroke-opacity:1"
       d="M 9.6209243,26.885101 H 25.066676"
       id="path2816" />
    <path
       style="fill:none;stroke:#ffbd59;stroke-width:1.23424;stroke-linecap:butt;stroke-linejoin:miter;stroke-miterlimit:4;stroke-dasharray:none;stroke-opacity:1"
       d="M 36.515136,23.543161 H 61.935862"
       id="path2816-7" />
    <path
       style="fill:none;stroke:#ffbd59;stroke-width:1.23424;stroke-linecap:butt;stroke-linejoin:miter;stroke-miterlimit:4;stroke-dasharray:none;stroke-opacity:1"
       d="M 9.6209243,30.541971 H 25.066676"
       id="path2831" />
    <path
       style="fill:none;stroke:#ffbd59;stroke-width:1.23424;stroke-linecap:butt;stroke-linejoin:miter;stroke-miterlimit:4;stroke-dasharray:none;stroke-opacity:1"
       d="M 9.6209243,34.198851 H 25.066676"
       id="path2833" />
    <path
       style="fill:none;stroke:#ffbd59;stroke-width:1.23424;stroke-linecap:butt;stroke-linejoin:miter;stroke-miterlimit:4;stroke-dasharray:none;stroke-opacity:1"
       d="M 9.6209243,37.855731 H 25.066676"
       id="path2835" />
    <rect
       style="fill:none;fill-opacity:1;stroke:#ffbd59;stroke-width:1.23424;stroke-miterlimit:4;stroke-dasharray:none;stroke-opacity:1"
       id="rect2862"
       width="35.389603"
       height="11.419905"
       x="31.988205"
       y="26.855333" />
    <path
       id="path3684"
       style="color:#000000;fill:#ffbd59;stroke-width:0.00926042;stroke-miterlimit:4;stroke-dasharray:none"
       d="m 27.735737,3.6719727 v 0.66146 h 0.26459 v -0.66146 z" />
    <path
       id="path3680"
       style="color:#000000;fill:#ffbd59;stroke-width:0.00926042;stroke-miterlimit:4;stroke-dasharray:none"
       d="m 75.612965,139.95829 v 0.66146 h 0.26459 v -0.66146 z" />
    <path
       id="rect8000"
       style="fill:none;stroke:#ffbd59;stroke-width:0.926042;stroke-miterlimit:4;stroke-dasharray:none"
       d="m 39.571007,47.433894 c 0.75227,0 1.35789,0.56116 1.35789,1.2582 0,0.69704 -0.60562,1.25819 -1.35789,1.25819 -0.75227,0 -1.35789,-0.56115 -1.35789,-1.25819 0,-0.69704 0.60562,-1.2582 1.35789,-1.2582 z" />
    <path
       style="fill:#f9b65f;fill-opacity:1;stroke:#ffbd59;stroke-width:0.926042;stroke-linecap:butt;stroke-linejoin:miter;stroke-miterlimit:4;stroke-dasharray:none;stroke-opacity:1"
       d="m 34.607721,53.696541 -0.39782,8.68231"
       id="path8328" />
    <path
       style="fill:#f9b65f;fill-opacity:1;stroke:#ffbd59;stroke-width:0.926042;stroke-linecap:butt;stroke-linejoin:miter;stroke-miterlimit:4;stroke-dasharray:none;stroke-opacity:1"
       d="m 44.781371,53.696541 0.68686,8.88023"
       id="path8330" />
    <path
       id="rect8354"
       style="fill:none;stroke:#ffbd59;stroke-width:1.10695;stroke-miterlimit:4;stroke-dasharray:none"
       d="m 30.609251,62.914441 h 17.87005 c 0.49888,0 0.90051,0.58448 0.90051,1.31049 0,0.72601 -0.40163,1.31048 -0.90051,1.31048 h -17.87005 c -0.49887,0 -0.9005,-0.58447 -0.9005,-1.31048 0,-0.72601 0.40163,-1.31049 0.9005,-1.31049 z" />
    <rect
       style="fill:none;stroke:#ffbd59;stroke-width:1.36139"
       id="rect1769"
       width="70.952065"
       height="49.637703"
       x="4.1719217"
       y="3.3530159"
       ry="4.0939851" />
    <path
       style="fill:none;stroke:#ffbd59;stroke-width:1.23424;stroke-linecap:butt;stroke-linejoin:miter;stroke-miterlimit:4;stroke-dasharray:none;stroke-opacity:1"
       d="M 4.0756275,43.021581 H 74.687912"
       id="path2592" />
  </g>
</svg>
