<?xml version="1.0" encoding="UTF-8" standalone="no"?>
<!-- Created with Inkscape (http://www.inkscape.org/) -->

<svg
   version="1.1"
   id="svg824"
   width="423"
   height="423"
   viewBox="0 0 423 423"
   sodipodi:docname="molduraFoto.svg"
   inkscape:version="1.1.2 (b8e25be833, 2022-02-05)"
   xmlns:inkscape="http://www.inkscape.org/namespaces/inkscape"
   xmlns:sodipodi="http://sodipodi.sourceforge.net/DTD/sodipodi-0.dtd"
   xmlns="http://www.w3.org/2000/svg"
   xmlns:svg="http://www.w3.org/2000/svg">
  <defs
     id="defs828" />
  <sodipodi:namedview
     id="namedview826"
     pagecolor="#ffffff"
     bordercolor="#666666"
     borderopacity="1.0"
     inkscape:pageshadow="2"
     inkscape:pageopacity="0.0"
     inkscape:pagecheckerboard="0"
     showgrid="false"
     inkscape:zoom="1.8179669"
     inkscape:cx="211.22497"
     inkscape:cy="212.87516"
     inkscape:window-width="1920"
     inkscape:window-height="991"
     inkscape:window-x="-9"
     inkscape:window-y="-9"
     inkscape:window-maximized="1"
     inkscape:current-layer="g830" />
  <g
     inkscape:groupmode="layer"
     inkscape:label="Image"
     id="g830">
    <path
       style="fill:#ffbd59;fill-opacity:1;stroke:#ffbd59;stroke-width:5;stroke-miterlimit:4;stroke-dasharray:none;stroke-opacity:1"
       d="m 405.01519,228.39799 c 0.18697,0.30254 1.06793,0.55007 1.95769,0.55007 0.88975,0 1.61773,0.24752 1.61773,0.55006 0,0.30254 0.37129,0.55007 0.8251,0.55007 0.4538,0 0.82793,0.18564 0.8314,0.41254 0.003,0.22691 0.99359,0.88555 2.20027,1.46366 1.20667,0.57811 2.1979,1.19694 2.20273,1.37516 0.005,0.17824 0.68554,1.10568 1.51268,2.061 2.72866,3.15152 3.14687,3.76155 3.90569,5.69706 0.41338,1.05441 0.94723,3.3734 1.18633,5.15332 0.2391,1.77991 0.76723,3.44695 1.17363,3.70451 0.54927,0.34812 0.56244,0.47046 0.0513,0.47673 -0.37817,0.005 -0.68758,0.39432 -0.68758,0.86598 0,0.47166 -0.24753,0.70458 -0.55007,0.5176 -0.33558,-0.2074 -0.55006,0.62521 -0.55006,2.13534 0,1.36141 -0.24753,2.62827 -0.55007,2.81525 -0.30253,0.18698 -0.55006,1.05333 -0.55006,1.92523 0,0.87189 -0.24753,1.73825 -0.55007,1.92522 -0.30253,0.18698 -0.55006,1.1771 -0.55006,2.20026 0,1.02317 -0.24753,2.01329 -0.55007,2.20026 -0.30253,0.18698 -0.55371,0.8823 -0.55816,1.54515 -0.009,1.38293 -1.7799,7.30203 -2.35689,7.87901 -0.21193,0.21193 -0.38534,0.9483 -0.38534,1.63636 0,0.68806 -0.24752,1.404 -0.55006,1.59098 -0.30254,0.18698 -0.55007,0.82377 -0.55007,1.41509 0,0.59132 -0.22558,1.50495 -0.50129,2.03028 -0.27572,0.52533 -0.91376,2.1928 -1.41789,3.70548 -1.10451,3.31422 -1.41323,4.07998 -3.21553,7.97594 -0.76976,1.66394 -1.92179,4.263 -2.56009,5.77568 -2.22078,5.263 -2.47737,5.77568 -2.89071,5.77568 -0.22868,0 -0.41579,0.49506 -0.41579,1.10013 0,0.60507 -0.19678,1.10013 -0.43729,1.10013 -0.24051,0 -0.89663,1.11388 -1.45805,2.4753 -0.56142,1.36141 -1.231,2.47529 -1.48794,2.47529 -0.25694,0 -0.46717,0.49506 -0.46717,1.10013 0,0.60507 -0.18914,1.10013 -0.42031,1.10013 -0.23116,0 -0.85113,0.92823 -1.37769,2.06274 -1.10741,2.38596 -1.50326,3.04161 -4.66527,7.72727 -1.28577,1.90534 -2.33777,3.66156 -2.33777,3.90272 0,0.24115 -0.49506,0.88648 -1.10013,1.43406 -0.60507,0.54758 -1.10013,1.20063 -1.10013,1.45122 0,1.0023 -5.07728,5.81903 -6.87896,6.52595 -1.05714,0.41479 -1.92208,0.9555 -1.92208,1.20157 0,0.24607 -0.44555,0.44739 -0.99012,0.44739 -0.54456,0 -1.29953,0.30942 -1.6777,0.68759 -0.46191,0.46191 -2.56513,0.68758 -6.40825,0.68758 -3.84313,0 -5.94635,-0.22567 -6.40826,-0.68758 -0.37817,-0.37817 -1.2569,-0.68759 -1.95273,-0.68759 -0.69584,0 -1.26515,-0.24752 -1.26515,-0.55006 0,-0.30254 -0.39469,-0.55007 -0.87708,-0.55007 -0.48239,0 -2.36468,-1.42329 -4.18286,-3.16287 -3.24188,-3.10173 -5.9242,-7.48119 -5.95886,-9.72908 -0.01,-0.62409 -0.37132,-1.60207 -0.80378,-2.1733 -0.49939,-0.65964 -0.61667,-1.36212 -0.32142,-1.92523 0.25568,-0.48765 0.63914,-1.93863 0.85214,-3.22441 0.21299,-1.28577 0.61303,-2.33777 0.88897,-2.33777 0.27594,0 0.50172,-0.3713 0.50172,-0.8251 0,-0.4538 0.24753,-0.8251 0.55006,-0.8251 0.30254,0 0.55037,-0.30941 0.55074,-0.68758 3.7e-4,-0.37817 0.61919,-1.40679 1.37516,-2.28581 0.75597,-0.87903 1.37449,-1.93103 1.37449,-2.33778 0,-0.40675 0.2175,-0.73954 0.48333,-0.73954 0.26583,0 0.79093,-0.74259 1.16687,-1.6502 0.37594,-0.9076 0.90103,-1.65019 1.16686,-1.65019 0.26583,0 0.48333,-0.3713 0.48333,-0.8251 0,-0.4538 0.18565,-0.82744 0.41255,-0.83031 0.2269,-0.003 0.9012,-1.11674 1.49844,-2.47529 0.59725,-1.35855 1.27795,-2.47008 1.51268,-2.47008 0.23473,0 0.42679,-0.47443 0.42679,-1.05429 0,-0.57986 0.19474,-1.1368 0.43277,-1.23765 0.53627,-0.22721 3.41768,-6.10899 3.41768,-6.97648 0,-0.34801 0.24753,-0.63275 0.55007,-0.63275 0.30253,0 0.55006,-0.49506 0.55006,-1.10013 0,-0.60507 0.24753,-1.10013 0.55007,-1.10013 0.30253,0 0.55006,-0.48045 0.55006,-1.06767 0,-0.58721 0.24753,-1.22065 0.55007,-1.40763 0.30253,-0.18697 0.55006,-0.82041 0.55006,-1.40762 0,-0.58722 0.1857,-1.06767 0.41266,-1.06767 0.22696,0 0.88964,-1.54706 1.47261,-3.4379 0.58297,-1.89085 1.26362,-3.67306 1.51257,-3.96047 0.24894,-0.28741 0.45262,-1.04238 0.45262,-1.6777 0,-0.63533 0.20449,-1.39029 0.45442,-1.6777 0.24993,-0.28741 0.76911,-1.63644 1.15374,-2.99785 0.38463,-1.36141 0.91958,-2.90007 1.18877,-3.41923 0.26921,-0.51918 0.65127,-2.32072 0.84904,-4.00344 0.19777,-1.68273 0.57222,-3.19091 0.8321,-3.35153 0.25988,-0.16062 0.47251,-1.26754 0.47251,-2.45983 0,-1.19229 0.24753,-2.16779 0.55007,-2.16779 0.30253,0 0.55006,-1.11389 0.55006,-2.4753 0,-1.36141 0.24753,-2.47529 0.55007,-2.47529 0.30253,0 0.55006,-0.72798 0.55006,-1.61773 0,-0.88975 0.21556,-1.75096 0.47902,-1.91378 0.26346,-0.16283 0.62794,-0.98191 0.80995,-1.82018 0.34158,-1.57313 2.2805,-4.24608 4.8691,-6.71241 2.2313,-2.12592 2.75974,-2.50382 4.70572,-3.3651 0.98324,-0.43518 1.78771,-0.97834 1.78771,-1.20703 0,-0.22868 0.74259,-0.41578 1.65019,-0.41578 0.90761,0 1.6502,-0.24753 1.6502,-0.55007 0,-0.32327 1.91441,-0.55006 4.64309,-0.55006 2.5537,0 4.79607,0.24752 4.98305,0.55006 z"
       id="path951" />
    <path
       style="fill:#ffbd59;fill-opacity:1;stroke:#ffbd59;stroke-width:5;stroke-miterlimit:4;stroke-dasharray:none;stroke-opacity:1"
       d="m 323.60556,350.51242 c 0.18698,0.30254 1.0713,0.55007 1.96516,0.55007 0.89386,0 2.05501,0.21865 2.58034,0.48589 0.52534,0.26724 1.69774,0.81914 2.60535,1.22646 1.5738,0.7063 4.84304,2.89059 6.08158,4.06333 0.31951,0.30254 1.05359,1.35454 1.63128,2.33778 0.57769,0.98324 1.2445,1.78771 1.48181,1.78771 0.23731,0 0.43147,0.49506 0.43147,1.10013 0,0.60507 0.24753,1.10013 0.55006,1.10013 0.30254,0 0.55007,0.5982 0.55007,1.32933 0,0.73112 0.2473,1.41183 0.54955,1.51267 0.30225,0.10085 0.58242,1.61012 0.62259,3.35394 0.0603,2.61748 -0.24499,3.76897 -1.75005,6.60078 -1.0027,1.88661 -2.72134,4.35018 -3.8192,5.4746 -1.83633,1.88076 -5.73065,4.83141 -6.37659,4.83141 -0.15048,0 -0.80499,0.49506 -1.45446,1.10013 -0.64946,0.60507 -1.50547,1.10013 -1.90222,1.10013 -0.39676,0 -0.72138,0.20365 -0.72138,0.45256 0,0.24891 -1.11325,1.00855 -2.47389,1.68809 -1.36064,0.67954 -2.78393,1.53802 -3.16287,1.90774 -0.37894,0.36972 -1.80287,1.21168 -3.16428,1.87102 -3.26749,1.58245 -5.73213,3.05867 -5.95904,3.56921 -0.10084,0.2269 -0.65778,0.41255 -1.23764,0.41255 -0.57986,0 -1.05429,0.24753 -1.05429,0.55007 0,0.30253 -0.28474,0.55006 -0.63276,0.55006 -0.34801,0 -1.89507,0.59056 -3.43791,1.31236 -1.54283,0.7218 -4.70777,2.20084 -7.03319,3.28677 -2.32543,1.08593 -5.2339,2.28835 -6.46327,2.67203 -1.22937,0.38369 -2.23521,0.88487 -2.23521,1.11375 0,0.22887 -0.60422,0.41613 -1.3427,0.41613 -0.73849,0 -1.49568,0.24753 -1.68266,0.55007 -0.18698,0.30253 -0.94418,0.55006 -1.68266,0.55006 -0.73849,0 -1.3427,0.24753 -1.3427,0.55007 0,0.30253 -0.43318,0.55371 -0.96261,0.55816 -1.20128,0.0101 -7.1148,1.83524 -7.63645,2.35689 -0.21193,0.21193 -0.9483,0.38534 -1.63636,0.38534 -0.68806,0 -1.404,0.24753 -1.59098,0.55006 -0.18698,0.30254 -1.05333,0.55007 -1.92523,0.55007 -0.87189,0 -1.72208,0.22138 -1.88931,0.49196 -0.16723,0.27057 -1.23383,0.62618 -2.37024,0.79023 -3.56325,0.51438 -8.59796,1.51114 -10.35622,2.05028 -0.92909,0.28489 -2.70907,0.51798 -3.95551,0.51798 -1.24644,0 -2.41924,0.24753 -2.60622,0.55007 -0.44139,0.71418 -3.40907,0.71418 -3.85045,0 -0.18698,-0.30254 -1.30086,-0.55007 -2.4753,-0.55007 -1.17443,0 -2.27654,-0.22848 -2.44913,-0.50774 -0.1726,-0.27926 -1.02789,-0.66459 -1.90066,-0.85628 -0.87277,-0.19169 -2.02217,-0.82956 -2.55424,-1.41748 -0.53206,-0.58793 -1.17372,-1.06895 -1.42591,-1.06895 -1.19351,0 -5.97175,-5.74375 -5.97175,-7.17842 0,-0.28737 -0.24753,-0.52249 -0.55006,-0.52249 -0.30254,0 -0.55007,-0.60422 -0.55007,-1.3427 0,-0.73849 -0.27838,-1.51475 -0.61862,-1.72503 -0.9211,-0.56928 -0.27187,-7.23757 0.95987,-9.8588 0.56865,-1.21014 1.52897,-2.73557 2.13405,-3.38983 3.84242,-4.15481 4.95907,-5.16947 6.38247,-5.79952 0.87641,-0.38794 1.59347,-0.89245 1.59347,-1.12113 0,-0.22868 0.44555,-0.41579 0.99012,-0.41579 0.54456,0 1.22527,-0.23101 1.51267,-0.51336 0.46164,-0.45351 3.46138,-1.05136 10.28967,-2.05076 1.13641,-0.16633 2.20301,-0.5238 2.37023,-0.79437 0.16724,-0.27058 1.01743,-0.49196 1.88932,-0.49196 0.8719,0 1.73825,-0.24753 1.92523,-0.55007 0.18698,-0.30254 1.06794,-0.55006 1.95769,-0.55006 0.88976,0 1.61773,-0.24753 1.61773,-0.55007 0,-0.30254 0.86636,-0.55006 1.92523,-0.55006 1.05888,0 1.92523,-0.22431 1.92523,-0.49845 0,-0.27415 1.23737,-0.66863 2.74971,-0.87663 1.51234,-0.208 2.88836,-0.60252 3.05782,-0.87672 0.16946,-0.27419 0.78856,-0.49853 1.37578,-0.49853 0.58722,0 1.06766,-0.24753 1.06766,-0.55006 0,-0.30254 0.44572,-0.55007 0.99047,-0.55007 1.22922,0 3.95002,-1.22958 3.95583,-1.78771 0.002,-0.2269 0.56123,-0.41407 1.24194,-0.41594 0.6807,-0.002 1.94664,-0.37316 2.8132,-0.8251 0.86656,-0.45194 1.91855,-0.8217 2.33778,-0.8217 0.41922,0 0.76222,-0.24753 0.76222,-0.55007 0,-0.30254 0.49505,-0.55007 1.10013,-0.55007 0.60507,0 1.10013,-0.24752 1.10013,-0.55006 0,-0.30254 0.37129,-0.55007 0.82509,-0.55007 0.45381,0 0.8251,-0.24752 0.8251,-0.55006 0,-0.30254 0.49506,-0.55007 1.10013,-0.55007 0.60507,0 1.10013,-0.21998 1.10013,-0.48884 0,-0.26887 0.86635,-0.65138 1.92523,-0.85002 1.05887,-0.19865 1.92523,-0.53707 1.92523,-0.75204 0,-0.21498 0.69609,-0.69899 1.54687,-1.07558 0.85077,-0.37659 2.07807,-1.1796 2.72732,-1.78447 0.64925,-0.60487 1.44704,-1.09976 1.77287,-1.09976 0.54476,0 3.21178,-1.51439 3.85411,-2.18843 0.15126,-0.15874 0.95573,-0.63946 1.78771,-1.06827 0.83197,-0.42881 1.51268,-0.98536 1.51268,-1.23677 0,-0.25141 0.37129,-0.45712 0.82509,-0.45712 0.45381,0 0.8251,-0.19989 0.8251,-0.4442 0,-0.24432 1.052,-0.87779 2.33778,-1.40773 1.28577,-0.52994 2.76759,-1.1964 3.29292,-1.48102 0.52534,-0.28463 1.56273,-0.5175 2.30532,-0.5175 0.74259,0 1.50314,-0.24753 1.69012,-0.55007 0.18698,-0.30253 1.30086,-0.55006 2.47529,-0.55006 1.17443,0 2.28832,0.24753 2.47529,0.55006 z"
       id="path990" />
    <path
       style="fill:#ffbd59;fill-opacity:1;stroke:#ffbd59;stroke-width:5;stroke-miterlimit:4;stroke-dasharray:none;stroke-opacity:1"
       d="m 214.96772,3.36362 c 0,0.41991 2.89119,0.60784 9.35111,0.60784 5.86736,0 9.3511,0.20493 9.3511,0.55007 0,0.31742 1.73105,0.55006 4.09303,0.55006 2.25116,0 4.246,0.24753 4.43298,0.55007 0.18698,0.30253 1.67215,0.55006 3.30039,0.55006 1.62824,0 3.09973,0.22539 3.26998,0.50086 0.17025,0.27547 2.41262,0.67604 4.98305,0.89016 2.57042,0.21411 4.6735,0.60755 4.6735,0.8743 0,0.26675 0.99012,0.48501 2.20026,0.48501 1.21014,0 2.20026,0.24753 2.20026,0.55006 0,0.30254 0.86635,0.55007 1.92523,0.55007 1.05887,0 1.92522,0.24753 1.92522,0.55006 0,0.30254 0.86636,0.55007 1.92523,0.55007 1.05888,0 1.92523,0.22045 1.92523,0.48988 0,0.26944 0.80447,0.61675 1.78771,0.7718 2.3944,0.37759 6.41918,1.44871 8.11346,2.15925 0.75634,0.31719 1.99399,0.82001 2.75033,1.11736 0.75633,0.29736 1.80497,0.7593 2.33031,1.02653 0.52533,0.26724 1.45357,0.48589 2.06274,0.48589 0.60918,0 1.1076,0.23237 1.1076,0.51637 0,0.28399 1.11388,0.68339 2.47529,0.88755 1.36141,0.20415 2.47529,0.53019 2.47529,0.72452 0,0.19433 0.80447,0.68788 1.78771,1.09679 0.98324,0.40889 3.52042,1.54482 5.63817,2.52428 2.11775,0.97945 4.65492,2.12716 5.63816,2.55046 0.98325,0.42329 1.78772,0.95673 1.78772,1.18541 0,0.22869 0.49505,0.41579 1.10013,0.41579 0.60507,0 1.10013,0.18914 1.10013,0.42031 0,0.44176 4.01503,2.33002 4.95435,2.33002 0.30047,0 0.5463,0.24753 0.5463,0.55006 0,0.30254 0.37129,0.55007 0.82509,0.55007 0.45381,0 0.8251,0.24753 0.8251,0.55006 0,0.30254 0.3713,0.55007 0.8251,0.55007 0.4538,0 0.8251,0.24753 0.8251,0.55006 0,0.30254 0.49505,0.55007 1.10013,0.55007 0.60507,0 1.10169,0.18565 1.1036,0.41255 0.004,0.5165 3.15578,2.33777 4.04516,2.33777 0.3625,0 1.01591,0.49506 1.45202,1.10013 0.43611,0.60508 0.99626,1.10013 1.24477,1.10013 0.24852,0 0.75082,0.25404 1.11622,0.56454 0.3654,0.31049 1.84569,1.32761 3.28953,2.26027 3.67251,2.3723 8.65117,8.80209 8.65117,11.17274 0,0.41939 0.25238,0.84666 0.56084,0.94948 0.30847,0.10282 0.56718,1.67051 0.57492,3.48374 0.0166,3.88543 -1.96645,8.27098 -5.36796,11.87144 -2.4386,2.58123 -8.54078,6.00209 -10.70661,6.00209 -0.82402,0 -1.6512,0.24752 -1.83818,0.55006 -0.18697,0.30254 -1.67215,0.55007 -3.30039,0.55007 -1.62823,0 -3.11341,-0.24753 -3.30039,-0.55007 -0.18697,-0.30254 -1.1917,-0.55006 -2.23272,-0.55006 -1.04102,0 -1.89276,-0.24753 -1.89276,-0.55007 0,-0.30254 -0.40982,-0.55006 -0.9107,-0.55006 -0.50088,0 -1.72201,-0.61883 -2.71362,-1.37517 -0.99161,-0.75634 -2.02861,-1.37516 -2.30444,-1.37516 -0.27584,0 -0.94954,-0.49506 -1.49712,-1.10013 -0.54758,-0.60507 -1.32854,-1.10013 -1.73545,-1.10013 -0.40691,0 -0.73984,-0.20635 -0.73984,-0.45856 0,-0.25221 -1.36142,-1.17083 -3.02536,-2.04138 -1.66395,-0.87054 -3.02536,-1.77807 -3.02536,-2.01673 0,-0.23865 -0.47443,-0.43392 -1.05429,-0.43392 -0.57986,0 -1.1368,-0.2063 -1.23765,-0.45845 -0.24034,-0.60094 -16.78655,-8.71234 -18.75324,-9.19335 -0.83484,-0.20418 -1.65391,-0.59135 -1.82018,-0.86037 -0.16626,-0.26902 -0.7861,-0.48913 -1.37743,-0.48913 -0.59132,0 -1.50494,-0.2273 -2.03028,-0.50511 -2.63437,-1.39315 -6.29236,-2.79528 -7.29257,-2.79528 -0.61808,0 -2.01242,-0.37129 -3.09853,-0.82509 -1.0861,-0.45381 -2.67248,-0.8251 -3.52529,-0.8251 -0.8528,0 -1.70354,-0.24753 -1.89051,-0.55007 -0.18698,-0.30253 -1.19171,-0.55006 -2.23273,-0.55006 -1.04102,0 -1.89276,-0.24753 -1.89276,-0.55007 0,-0.30253 -0.74595,-0.55006 -1.65766,-0.55006 -0.91171,0 -2.08748,-0.22138 -2.61281,-0.49195 -1.41538,-0.72899 -8.46872,-1.74694 -14.58683,-2.1052 -2.95939,-0.1733 -5.51117,-0.52619 -5.67063,-0.78419 -0.41933,-0.67851 -27.03234,-0.60004 -27.45322,0.081 -0.18697,0.30253 -2.11993,0.54482 -4.29546,0.53842 -4.2339,-0.0125 -14.88304,1.45574 -16.46203,2.26963 -0.52533,0.27079 -1.81025,0.49234 -2.85537,0.49234 -1.04513,0 -2.05321,0.24753 -2.24019,0.55006 -0.18698,0.30254 -1.1422,0.55007 -2.12271,0.55007 -0.98052,0 -2.01791,0.20449 -2.30531,0.45442 -0.28741,0.24993 -1.63645,0.76003 -2.99786,1.13356 -6.75954,1.8546 -8.60331,2.4122 -9.48116,2.86736 -0.52533,0.27239 -1.45357,0.49524 -2.06274,0.49524 -0.60918,0 -1.10759,0.24753 -1.10759,0.55007 0,0.30254 -0.37466,0.55006 -0.83257,0.55006 -0.4579,0 -1.26237,0.22672 -1.78771,0.50383 -0.52533,0.2771 -1.94526,0.91266 -3.15541,1.41236 -1.21014,0.4997 -2.69532,1.11573 -3.30039,1.36897 -4.15311,1.73815 -13.36348,6.46246 -14.02666,7.19474 -0.15126,0.16703 -1.14138,0.74204 -2.20026,1.2778 -2.94927,1.49224 -4.30268,2.29192 -5.35934,3.16662 -0.53152,0.43999 -1.70899,1.1606 -2.6166,1.60136 -0.90761,0.44076 -1.97728,1.11078 -2.37707,1.48895 -0.39977,0.37817 -0.89483,0.68873 -1.10013,0.69013 -0.20529,0.002 -1.1643,0.74399 -2.13113,1.6502 -0.96684,0.9062 -1.95695,1.64979 -2.20026,1.65241 -0.24331,0.003 -1.35409,0.86898 -2.46841,1.92523 -1.11431,1.05625 -2.23854,1.92046 -2.49828,1.92046 -0.25974,0 -1.56545,1.11388 -2.90157,2.47529 -1.33613,1.36141 -2.69063,2.4753 -3.01001,2.4753 -0.7699,0 -15.14214,14.41947 -15.14214,15.19189 0,0.33024 -0.69564,1.19328 -1.54587,1.91786 -0.85023,0.72458 -2.27353,2.30734 -3.16288,3.51724 -0.88935,1.20989 -2.08058,2.69507 -2.64718,3.30039 -0.5666,0.60531 -1.91209,2.46198 -2.98997,4.12593 -1.07787,1.66395 -2.29326,3.3606 -2.70085,3.77033 -0.40758,0.40973 -1.23058,1.64738 -1.82886,2.75032 -1.40967,2.59875 -2.29466,3.9875 -3.10988,4.88013 -0.36215,0.39653 -1.56112,2.5726 -2.6644,4.83572 -1.10328,2.26311 -2.22365,4.24929 -2.48971,4.41373 -0.45045,0.27839 -1.00629,1.39908 -3.12614,6.30296 -0.45773,1.05887 -1.29471,2.89995 -1.85997,4.09129 -0.56525,1.19133 -1.02773,2.61463 -1.02773,3.16287 0,0.54825 -0.24753,0.99681 -0.55007,0.99681 -0.30253,0 -0.55006,0.37466 -0.55006,0.83256 0,0.45791 -0.21731,1.26238 -0.48292,1.78772 -1.17224,2.31857 -2.26741,5.18369 -2.26741,5.93186 0,0.79008 -0.23298,1.37904 -1.56431,3.95438 -0.34977,0.6766 -0.63595,1.96152 -0.63595,2.85537 0,0.89387 -0.22018,1.76128 -0.48929,1.9276 -0.2691,0.16632 -0.61673,1.10916 -0.7725,2.09521 -0.15576,0.98604 -0.6914,3.40175 -1.1903,5.36823 -0.4989,1.96648 -1.04819,5.14953 -1.22064,7.07343 -0.207,2.30937 -0.47861,3.24395 -0.79935,2.75033 -0.30402,-0.46791 -0.4524,0.57951 -0.39655,2.7992 0.057,2.26623 -0.14026,3.62339 -0.54641,3.75878 -0.85722,0.28573 -0.81324,3.80733 0.0519,4.15643 0.55007,0.22196 0.55007,0.28613 0,0.32087 -0.4264,0.0269 -0.68758,0.86686 -0.68758,2.21122 0,1.19229 -0.24753,2.32078 -0.55006,2.50776 -0.78796,0.48699 -0.68031,3.43119 0.13751,3.76119 0.55007,0.22196 0.55007,0.28613 0,0.32087 -0.87613,0.0553 -1.01092,29.48218 -0.13751,30.02197 0.30253,0.18698 0.55006,2.30559 0.55006,4.70802 -1e-5,2.40243 0.212,4.36806 0.47113,4.36806 0.25913,0 0.64324,2.27972 0.85358,5.06606 0.21034,2.78632 0.58781,5.3235 0.83883,5.63816 0.25102,0.31466 0.60227,1.43846 0.78057,2.49734 0.17828,1.05887 0.4825,2.85575 0.67602,3.99307 0.19352,1.13731 0.57205,2.20391 0.84115,2.37024 0.26911,0.16632 0.48929,1.03037 0.48929,1.92013 0,0.88975 0.24753,1.61773 0.55007,1.61773 0.30253,0 0.55006,0.61017 0.55006,1.35593 0,1.4418 1.32924,5.9824 2.21759,7.57516 0.29301,0.52533 0.53274,1.45357 0.53274,2.06274 0,0.60918 0.24753,1.1076 0.55006,1.1076 0.30254,0 0.55007,0.61882 0.55007,1.37516 0,0.75634 0.24753,1.37516 0.55006,1.37516 0.30254,0 0.55007,0.48045 0.55007,1.06767 0,0.58721 0.24753,1.22065 0.55006,1.40762 0.30254,0.18698 0.55007,0.73386 0.55007,1.21529 0,1.04487 2.7989,6.95688 3.41768,7.21904 0.23803,0.10085 0.43277,0.65779 0.43277,1.23765 0,0.57986 0.24753,1.05429 0.55007,1.05429 0.30253,0 0.55006,0.37311 0.55006,0.82913 0,0.94999 2.81608,6.50373 3.43791,6.7801 0.2269,0.10085 0.41255,0.48735 0.41255,0.8589 0,0.37154 0.43317,1.16214 0.96261,1.75688 0.52944,0.59474 1.45767,2.06293 2.06274,3.26265 1.0052,1.99305 1.78263,3.1382 3.30172,4.86339 0.30327,0.34441 1.04026,1.55443 1.63777,2.68894 0.5975,1.13451 1.27761,2.06274 1.51135,2.06274 0.23374,0 0.42498,0.27199 0.42498,0.60441 0,0.33242 0.74259,1.29809 1.65019,2.14592 0.90761,0.84783 1.6502,1.76192 1.6502,2.03132 0,0.26939 0.86635,1.4083 1.92523,2.53091 1.05887,1.1226 1.92522,2.16241 1.92522,2.31067 0,0.83782 16.47106,17.58298 20.02211,20.35532 1.16254,0.9076 2.88821,2.32694 3.83482,3.15409 0.9466,0.82713 1.9312,1.50784 2.18799,1.51267 0.25678,0.005 1.16057,0.75138 2.0084,1.65898 0.84783,0.90761 1.79287,1.6502 2.10008,1.6502 0.30721,0 0.64107,0.19012 0.74192,0.42249 0.10085,0.23237 1.50556,1.26284 3.12158,2.28993 1.61602,1.02709 3.22496,2.1371 3.57542,2.46668 0.35046,0.32958 1.62056,1.0937 2.82245,1.69804 1.20188,0.60434 2.67185,1.53198 3.26659,2.06142 0.59475,0.52943 1.40597,0.96261 1.80273,0.96261 0.39675,0 0.72137,0.18913 0.72137,0.4203 0,0.44176 4.01504,2.33002 4.95436,2.33002 0.30047,0 0.54629,0.24753 0.54629,0.55007 0,0.30254 0.49506,0.55006 1.10013,0.55006 0.60508,0 1.10013,0.24753 1.10013,0.55007 0,0.30254 0.47444,0.55006 1.0543,0.55006 0.57985,0 1.1368,0.19561 1.23764,0.43469 0.28394,0.67312 6.40574,3.41577 7.62427,3.41577 0.5968,0 1.0851,0.24753 1.0851,0.55007 0,0.30253 0.49505,0.55006 1.10013,0.55006 0.60507,0 1.10013,0.24753 1.10013,0.55007 0,0.30253 0.61882,0.55006 1.37516,0.55006 0.75634,0 1.37516,0.19267 1.37516,0.42815 0,0.46643 5.82023,2.32218 7.28311,2.32218 0.49662,0 1.05592,0.24752 1.2429,0.55006 0.18698,0.30254 1.06794,0.55007 1.95769,0.55007 0.88975,0 1.61773,0.24752 1.61773,0.55006 0,0.30254 0.72798,0.55007 1.61773,0.55007 0.88975,0 1.75381,0.22018 1.92013,0.48928 0.16632,0.26911 1.10916,0.62667 2.09521,0.79457 0.98604,0.1679 3.03045,0.57624 4.54313,0.90742 1.51268,0.33118 4.2355,0.84638 6.05072,1.14489 1.81521,0.29851 3.7302,0.78388 4.25554,1.07859 0.52533,0.29471 1.30918,0.53583 1.74187,0.53583 0.4327,0 0.86923,0.18989 0.97008,0.42198 0.10084,0.23209 1.45266,1.34487 3.00404,2.47285 2.80781,2.0415 5.70532,5.30175 5.70532,6.41957 0,0.32273 0.24753,0.58677 0.55007,0.58677 0.30253,0 0.55006,0.49506 0.55006,1.10013 0,0.60507 0.24753,1.10013 0.55007,1.10013 0.30253,0 0.55006,0.61882 0.55006,1.37516 0,0.75634 0.24753,1.37517 0.55007,1.37517 0.71735,0 0.71735,4.2322 0,4.67555 -0.30254,0.18698 -0.55007,0.77391 -0.55007,1.30431 0,3.44279 -6.44614,10.88457 -11.28012,13.02239 -1.67911,0.74258 -3.65009,1.35015 -4.37995,1.35015 -0.72986,0 -1.48,0.24753 -1.66698,0.55007 -0.42453,0.6869 -4.82019,0.72722 -5.52815,0.0507 -0.28741,-0.27465 -1.76021,-0.62035 -3.27289,-0.76823 -3.85283,-0.37665 -13.64501,-2.55082 -14.27418,-3.16931 -0.28741,-0.28253 -1.29816,-0.51369 -2.2461,-0.51369 -0.94795,0 -1.89318,-0.16964 -2.10052,-0.37698 -0.60356,-0.60356 -4.37114,-1.80596 -5.68711,-1.815 -0.66285,-0.005 -1.34485,-0.23427 -1.51556,-0.51049 -0.17071,-0.27621 -1.34384,-0.6768 -2.60694,-0.8902 -1.26311,-0.2134 -3.12582,-0.85376 -4.13934,-1.42303 -1.01353,-0.56926 -2.20055,-1.03502 -2.63785,-1.03502 -0.43728,0 -1.60552,-0.49413 -2.59607,-1.09807 -0.99055,-0.60394 -2.13489,-1.099 -2.54297,-1.10013 -0.74747,-0.002 -1.79361,-0.43213 -8.33411,-3.42602 -6.56296,-3.00417 -9.62366,-4.49718 -9.90117,-4.82975 -0.15127,-0.18129 -1.14139,-0.74901 -2.20026,-1.26161 -1.89321,-0.9165 -5.0752,-2.7427 -11.01861,-6.32378 -1.65443,-0.99684 -3.50311,-2.11073 -4.10818,-2.47529 -0.60507,-0.36457 -1.22389,-0.79383 -1.37516,-0.95391 -0.79329,-0.8395 -6.13124,-4.38449 -6.60205,-4.38449 -0.30184,0 -0.5488,-0.19416 -0.5488,-0.43147 0,-0.23731 -0.68479,-0.83599 -1.52177,-1.3304 -0.83698,-0.49442 -2.3199,-1.66167 -3.29538,-2.59389 -0.97549,-0.93223 -1.97484,-1.69496 -2.22078,-1.69496 -0.24595,0 -1.28687,-0.86635 -2.31317,-1.92523 -1.0263,-1.05887 -2.08847,-1.92522 -2.36036,-1.92522 -0.2719,0 -2.58351,-2.04212 -5.13691,-4.53804 -2.55339,-2.49592 -4.933,-4.63774 -5.28801,-4.75959 -0.82218,-0.28221 -7.32558,-6.76794 -7.62061,-7.5999 -0.12185,-0.34363 -2.01614,-2.49013 -4.20952,-4.77 -2.19339,-2.27987 -3.98797,-4.35326 -3.98797,-4.60754 0,-0.25427 -0.86636,-1.30202 -1.92523,-2.32832 -1.05888,-1.0263 -1.92523,-2.09782 -1.92523,-2.38116 0,-0.28333 -0.43419,-0.91548 -0.96486,-1.40477 -1.25358,-1.15582 -5.08585,-5.93249 -5.08585,-6.33918 0,-0.17261 -1.11389,-1.7785 -2.4753,-3.56863 -1.36141,-1.79014 -2.47529,-3.48725 -2.47529,-3.77135 0,-0.2841 -0.44676,-0.92086 -0.9928,-1.41502 -0.54604,-0.49416 -1.33483,-1.77017 -1.75286,-2.83558 -0.41804,-1.0654 -0.94978,-1.9371 -1.18165,-1.9371 -0.23188,0 -0.846,-0.92824 -1.36472,-2.06275 -0.51872,-1.1345 -1.27186,-2.45235 -1.67364,-2.92854 -0.91669,-1.08645 -10.06777,-19.28685 -10.07847,-20.04486 -0.004,-0.30704 -0.75374,-2.08708 -1.66536,-3.95565 -0.91161,-1.86857 -1.81937,-4.21641 -2.01723,-5.21743 -0.19787,-1.00102 -0.81341,-2.63203 -1.36788,-3.62447 -0.55446,-0.99245 -1.00812,-2.29198 -1.00812,-2.88785 0,-0.59586 -0.21944,-1.08339 -0.48763,-1.08339 -0.2682,0 -0.61821,-0.68071 -0.77782,-1.51268 -0.54926,-2.86327 -2.91716,-11.10426 -3.30085,-11.48796 -0.21136,-0.21135 -0.38428,-1.07101 -0.38428,-1.91033 0,-0.83933 -0.24753,-1.67904 -0.55007,-1.86602 -0.30254,-0.18697 -0.55006,-1.17709 -0.55006,-2.20026 0,-1.02316 -0.24753,-2.01328 -0.55007,-2.20026 -0.30254,-0.18697 -0.55888,-1.12982 -0.56966,-2.0952 -0.0108,-0.96539 -0.3782,-3.24043 -0.8165,-5.05564 -0.43831,-1.81522 -0.80078,-4.33778 -0.80551,-5.6057 -0.005,-1.26792 -0.25612,-2.4583 -0.55865,-2.64528 -0.30254,-0.18697 -0.55007,-2.04344 -0.55007,-4.12548 0,-2.08204 -0.24753,-3.93851 -0.55006,-4.12549 -0.31485,-0.19459 -0.55007,-3.03107 -0.55007,-6.63325 0,-3.82881 -0.21541,-6.29328 -0.55006,-6.29328 -0.30254,0 -0.55007,-0.49506 -0.55007,-1.10013 0,-0.60507 -0.27784,-1.10013 -0.61741,-1.10013 -0.44651,0 -0.4407,-0.21294 0.021,-0.76924 0.35113,-0.42308 0.60963,-1.59884 0.57446,-2.61281 -0.0984,-2.83702 1.08541,-21.10813 1.68665,-26.032 0.29456,-2.41235 0.53557,-5.44458 0.53557,-6.7383 0,-1.29371 0.24753,-2.3522 0.55007,-2.3522 0.30253,0 0.55006,-1.09927 0.55006,-2.44283 0,-1.34355 0.24753,-2.59581 0.55007,-2.78279 0.30253,-0.18698 0.55006,-1.30086 0.55006,-2.47529 0,-1.17443 0.22139,-2.27216 0.49196,-2.43939 0.27058,-0.16722 0.63418,-1.23382 0.80801,-2.37023 0.86279,-5.64068 1.72036,-9.49207 2.11351,-9.49207 0.24033,0 0.43696,-0.74259 0.43696,-1.6502 0,-0.9076 0.24752,-1.65019 0.55006,-1.65019 0.30254,0 0.55007,-0.48342 0.55007,-1.07425 0,-0.59084 0.27834,-1.7666 0.61855,-2.61281 1.58776,-3.9493 3.2319,-9.1769 3.2319,-10.27591 0,-0.48884 0.24753,-0.88879 0.55007,-0.88879 0.30253,0 0.55006,-0.48045 0.55006,-1.06766 0,-0.58722 0.24753,-1.22065 0.55007,-1.40763 0.30253,-0.18698 0.55006,-0.82041 0.55006,-1.40763 0,-0.58721 0.24753,-1.06766 0.55007,-1.06766 0.30253,0 0.55006,-0.48045 0.55006,-1.06767 0,-0.58721 0.22011,-1.2037 0.48913,-1.36996 0.26902,-0.16627 0.65416,-0.98534 0.85587,-1.82018 0.53222,-2.20282 1.60871,-4.54323 2.08967,-4.54323 0.22868,0 0.41579,-0.49506 0.41579,-1.10013 0,-0.60507 0.18913,-1.10013 0.4203,-1.10013 0.23117,0 0.86639,-1.052 1.41159,-2.33778 0.54521,-1.28578 1.28285,-3.01848 1.6392,-3.85045 0.35635,-0.83198 0.83502,-1.51268 1.0637,-1.51268 0.22869,0 0.41579,-0.49506 0.41579,-1.10013 0,-0.60508 0.24753,-1.10013 0.55007,-1.10013 0.30253,0 0.55006,-0.38165 0.55006,-0.8481 0,-0.46645 0.50464,-1.38977 1.12142,-2.0518 0.61678,-0.66203 1.27256,-1.8059 1.45729,-2.54192 0.31217,-1.2438 1.0951,-2.42657 2.78442,-4.20641 0.37817,-0.39844 0.68759,-1.11341 0.68759,-1.58882 0,-0.47541 0.23085,-0.86438 0.51299,-0.86438 0.28215,0 0.68373,-0.53792 0.89239,-1.19537 0.20867,-0.65744 0.84417,-1.69424 1.41224,-2.30398 0.56805,-0.60974 1.03283,-1.37859 1.03283,-1.70856 0,-0.32997 0.49506,-0.95676 1.10013,-1.39287 0.60507,-0.43612 1.10013,-1.05023 1.10013,-1.3647 0,-0.31448 0.61882,-1.23915 1.37516,-2.05482 0.75634,-0.81568 1.37517,-1.62888 1.37517,-1.8071 0,-0.17822 0.61882,-0.94286 1.37516,-1.6992 0.75634,-0.75634 1.37516,-1.60069 1.37516,-1.87632 0,-0.27564 0.98703,-1.56392 2.1934,-2.86284 1.20638,-1.29893 2.19649,-2.52779 2.20026,-2.7308 0.004,-0.20302 1.06866,-1.44067 2.3664,-2.75033 1.29775,-1.30966 3.09234,-3.35327 3.98798,-4.54134 2.09585,-2.78019 13.17289,-13.85619 15.97704,-15.97555 1.18433,-0.89512 3.06216,-2.56453 4.17295,-3.70981 1.11079,-1.14528 2.23499,-2.08233 2.49821,-2.08233 0.26323,0 1.39709,-0.86635 2.5197,-1.92523 1.1226,-1.05887 2.28806,-1.92523 2.58989,-1.92523 0.30183,0 0.55048,-0.18564 0.55254,-0.41254 0.002,-0.22691 0.93031,-1.02334 2.06275,-1.76986 1.76499,-1.1635 3.60069,-2.50443 5.90944,-4.31666 0.30254,-0.23748 1.35454,-0.90594 2.33778,-1.48547 0.98324,-0.57954 1.78771,-1.24786 1.78771,-1.48517 0,-0.2373 0.32462,-0.43147 0.72138,-0.43147 0.39675,0 1.20122,-0.43386 1.78771,-0.96414 0.58648,-0.53028 2.11549,-1.45851 3.3978,-2.06274 1.2823,-0.60423 2.3343,-1.28425 2.33777,-1.51115 0.003,-0.2269 0.37761,-0.41255 0.83141,-0.41255 0.4538,0 0.8251,-0.24753 0.8251,-0.55007 0,-0.30253 0.32462,-0.55006 0.72138,-0.55006 0.39675,0 1.25275,-0.49506 1.90223,-1.10013 0.64946,-0.60507 1.51518,-1.10013 1.92381,-1.10013 0.40863,0 1.22345,-0.36342 1.81071,-0.80761 0.58726,-0.44417 1.50092,-0.81547 2.03036,-0.82509 0.52944,-0.01 0.96261,-0.26503 0.96261,-0.56756 0,-0.30254 0.3713,-0.55007 0.8251,-0.55007 0.45381,0 0.8251,-0.24753 0.8251,-0.55006 0,-0.30254 0.49506,-0.55007 1.10013,-0.55007 0.60507,0 1.10013,-0.24753 1.10013,-0.55006 0,-0.30254 0.44775,-0.55007 0.995,-0.55007 0.54724,0 1.47548,-0.36342 2.06274,-0.8076 0.58726,-0.44418 1.50092,-0.81547 2.03036,-0.8251 0.52944,-0.01 0.96261,-0.26502 0.96261,-0.56756 0,-0.30253 0.36377,-0.55006 0.80837,-0.55006 0.4446,0 1.68978,-0.49506 2.76706,-1.10013 1.07728,-0.60507 2.32245,-1.10013 2.76706,-1.10013 0.4446,0 0.80836,-0.21998 0.80836,-0.48885 0,-0.26887 0.89683,-0.65709 1.99295,-0.86273 1.09612,-0.20563 2.39564,-0.57559 2.88784,-0.82214 0.49219,-0.24653 1.63748,-0.75354 2.54509,-1.12667 0.9076,-0.37313 2.08001,-0.89707 2.60534,-1.16431 0.52534,-0.26724 1.43896,-0.48589 2.03028,-0.48589 0.59133,0 1.22811,-0.24753 1.41509,-0.55006 0.18698,-0.30254 0.79199,-0.55007 1.34446,-0.55007 1.16167,0 6.45481,-1.51557 7.86167,-2.25101 0.52533,-0.27462 1.56272,-0.49931 2.30531,-0.49931 0.74259,0 1.50315,-0.24753 1.69012,-0.55007 0.18698,-0.30253 1.05333,-0.55006 1.92523,-0.55006 0.8719,0 1.73825,-0.24753 1.92523,-0.55007 0.18698,-0.30253 1.1917,-0.55006 2.23272,-0.55006 1.04102,0 1.89277,-0.21557 1.89277,-0.47904 0,-0.26347 2.04211,-0.65667 4.53803,-0.87376 2.49592,-0.2171 4.78557,-0.5959 5.0881,-0.84176 0.54298,-0.44127 3.74611,-0.8641 10.72627,-1.41591 1.96648,-0.15546 4.07048,-0.51724 4.67555,-0.80395 0.60508,-0.28671 4.93684,-0.62362 9.62614,-0.74868 4.68931,-0.12506 9.57801,-0.40193 10.86379,-0.61527 1.57396,-0.26116 2.33777,-0.1893 2.33777,0.21994 z"
       id="path1029" />
    <path
       style="fill:#ffbd59;fill-opacity:1;stroke:#ffbd59;stroke-width:5;stroke-miterlimit:4;stroke-dasharray:none;stroke-opacity:1"
       d="m 370.63612,85.38109 c 0,0.30253 1.11388,0.55006 2.4753,0.55006 1.36141,0 2.47529,0.24753 2.47529,0.55007 0,0.30253 0.61882,0.55006 1.37516,0.55006 0.75634,0 1.37516,0.24753 1.37516,0.55007 0,0.30253 0.28605,0.55006 0.63566,0.55006 0.34962,0 1.44698,0.61882 2.43859,1.37516 0.99162,0.75634 1.9609,1.37517 2.15396,1.37517 0.71323,0 3.80282,4.01156 5.18964,6.73829 0.42314,0.83198 0.97506,1.51268 1.22647,1.51268 0.25141,0 0.45711,0.28038 0.45711,0.62306 0,0.34268 0.45548,1.02339 1.01218,1.51268 0.55669,0.48929 1.16594,1.51336 1.35387,2.27573 0.18794,0.76235 0.84634,1.92777 1.46312,2.58981 0.61678,0.66203 1.12142,1.58534 1.12142,2.0518 0,0.46645 0.24753,0.84809 0.55006,0.84809 0.30254,0 0.55007,0.3713 0.55007,0.8251 0,0.4538 0.21206,0.8251 0.47124,0.8251 0.25918,0 1.18741,1.60834 2.06274,3.5741 0.87533,1.96577 1.77715,3.57471 2.00405,3.57543 0.22691,7.2e-4 0.41255,0.49637 0.41255,1.10144 0,0.60507 0.20133,1.10013 0.4474,1.10013 0.24607,0 0.80301,0.917 1.23765,2.03777 0.43463,1.12078 1.59472,3.64376 2.57796,5.60663 0.98324,1.96287 1.78771,3.89246 1.78771,4.28798 0,0.39551 0.195,0.71912 0.43334,0.71912 0.23834,0 0.91905,1.6089 1.51268,3.57535 0.59364,1.96645 1.26498,3.57539 1.49189,3.57543 0.2269,3e-5 0.41254,0.49848 0.41254,1.10766 0,0.60917 0.21865,1.53741 0.48589,2.06274 0.26724,0.52533 0.79118,1.69774 1.16431,2.60535 0.37313,0.9076 0.87645,2.04699 1.11848,2.53196 0.24203,0.48497 0.61301,2.03507 0.82439,3.44467 0.21138,1.40959 0.6033,2.69823 0.87093,2.86363 0.26762,0.16541 0.48659,1.02871 0.48659,1.91847 0,0.88975 0.24753,1.61773 0.55006,1.61773 0.30254,0 0.55007,0.86635 0.55007,1.92523 0,1.05887 0.24753,1.92522 0.55006,1.92522 0.30254,0 0.55007,0.86636 0.55007,1.92523 0,1.05888 0.24753,1.92523 0.55006,1.92523 0.30254,0 0.55394,0.80447 0.55866,1.78771 0.005,0.98324 0.3672,3.27289 0.80551,5.0881 0.4383,1.81522 0.80572,4.12113 0.8165,5.12426 0.0108,1.00313 0.26663,2.28547 0.56857,2.84965 0.40231,0.75173 0.32884,1.2459 -0.27503,1.84977 -0.45321,0.45321 -0.82401,1.33675 -0.82401,1.96343 0,0.62668 -0.24753,1.13942 -0.55007,1.13942 -0.30253,0 -0.55006,0.34837 -0.55006,0.77416 0,1.2002 -6.72093,7.63352 -9.41543,9.01253 -1.32603,0.67864 -4.08179,1.43283 -6.12391,1.67599 -4.01876,0.4785 -10.72187,-0.0994 -11.62472,-1.00229 -0.30757,-0.30757 -1.00477,-0.55922 -1.54933,-0.55922 -0.54457,0 -0.99012,-0.24753 -0.99012,-0.55007 0,-0.30253 -0.30224,-0.55006 -0.67163,-0.55006 -0.89881,0 -7.02928,-6.10155 -7.02928,-6.99611 0,-0.38764 -0.24753,-0.7048 -0.55007,-0.7048 -0.30253,0 -0.55006,-0.49506 -0.55006,-1.10013 0,-0.60507 -0.21944,-1.10013 -0.48764,-1.10013 -0.26819,0 -0.60767,-0.68071 -0.75439,-1.51268 -1.20254,-6.81905 -2.79711,-14.33219 -3.20888,-15.11932 -0.27482,-0.52534 -0.49968,-1.7011 -0.49968,-2.61281 0,-0.91172 -0.24753,-1.65766 -0.55006,-1.65766 -0.30254,0 -0.55007,-0.49842 -0.55007,-1.1076 0,-0.60917 -0.22286,-1.53741 -0.49524,-2.06274 -0.27238,-0.52533 -0.92201,-2.44032 -1.44361,-4.25554 -0.52161,-1.81521 -1.1651,-3.73021 -1.42999,-4.25554 -0.26489,-0.52533 -0.48161,-1.45357 -0.48161,-2.06274 0,-0.60918 -0.24753,-1.1076 -0.55007,-1.1076 -0.30253,0 -0.55006,-0.49506 -0.55006,-1.10013 0,-0.60507 -0.24753,-1.10013 -0.55007,-1.10013 -0.30253,0 -0.55006,-0.44873 -0.55006,-0.99718 0,-0.54845 -0.61883,-2.27994 -1.37516,-3.84776 -0.75634,-1.56781 -1.37517,-3.07869 -1.37517,-3.35749 0,-0.27882 -0.19793,-0.58944 -0.43984,-0.69029 -0.39539,-0.16482 -1.93395,-3.20519 -4.82486,-9.53446 -0.55273,-1.21014 -1.38986,-2.57155 -1.86028,-3.02535 -0.47042,-0.45381 -1.29766,-1.69145 -1.83831,-2.75033 -1.40358,-2.74895 -2.24365,-4.14782 -3.13814,-5.22562 -0.43018,-0.51833 -1.03934,-1.39291 -1.35369,-1.94351 -0.31434,-0.55061 -1.25224,-2.16432 -2.08421,-3.58604 -0.83198,-1.42173 -1.51268,-3.24686 -1.51268,-4.05585 0,-0.809 -0.26608,-1.73698 -0.59128,-2.06218 -0.68658,-0.68658 0.41272,-7.32966 1.21291,-7.32966 0.26317,0 0.4785,-0.37355 0.4785,-0.8301 0,-0.45656 0.73505,-1.59928 1.63346,-2.53937 0.8984,-0.9401 1.78144,-2.17549 1.9623,-2.74532 0.18085,-0.56983 0.59819,-1.03605 0.92742,-1.03605 0.32923,0 1.40991,-0.61883 2.40152,-1.37517 0.99162,-0.75634 2.06698,-1.37516 2.3897,-1.37516 0.32273,0 0.58677,-0.24753 0.58677,-0.55006 0,-0.30254 0.60421,-0.55007 1.34269,-0.55007 0.73849,0 1.49569,-0.24753 1.68266,-0.55006 0.18698,-0.30254 1.31547,-0.55007 2.50776,-0.55007 1.19229,0 2.1678,-0.24753 2.1678,-0.55006 0,-0.30254 0.61882,-0.55007 1.37516,-0.55007 0.75634,0 1.37516,0.24753 1.37516,0.55007 z"
       id="path1068" />
  </g>
</svg>
