<?xml version="1.0" encoding="UTF-8" standalone="no"?>
<!-- Created with Inkscape (http://www.inkscape.org/) -->

<svg
   version="1.1"
   id="svg824"
   width="423"
   height="423"
   viewBox="0 0 423 423"
   sodipodi:docname="molduraFoto.svg"
   inkscape:version="1.1.2 (b8e25be833, 2022-02-05)"
   xmlns:inkscape="http://www.inkscape.org/namespaces/inkscape"
   xmlns:sodipodi="http://sodipodi.sourceforge.net/DTD/sodipodi-0.dtd"
   xmlns="http://www.w3.org/2000/svg"
   xmlns:svg="http://www.w3.org/2000/svg">
  <defs
     id="defs828" />
  <sodipodi:namedview
     id="namedview826"
     pagecolor="#ffffff"
     bordercolor="#666666"
     borderopacity="1.0"
     inkscape:pageshadow="2"
     inkscape:pageopacity="0.0"
     inkscape:pagecheckerboard="0"
     showgrid="false"
     inkscape:zoom="1.8179669"
     inkscape:cx="211.22497"
     inkscape:cy="212.60013"
     inkscape:window-width="1920"
     inkscape:window-height="991"
     inkscape:window-x="-9"
     inkscape:window-y="-9"
     inkscape:window-maximized="1"
     inkscape:current-layer="g830" />
  <g
     inkscape:groupmode="layer"
     inkscape:label="Image"
     id="g830">
    <g
       id="g3178"
       transform="rotate(180,211.44615,212.79815)"
       style="fill:none;stroke:#ffbd59;stroke-width:5;stroke-miterlimit:4;stroke-dasharray:none;stroke-opacity:1">
      <path
         style="fill:none;fill-opacity:1;stroke:#ffbd59;stroke-width:5;stroke-miterlimit:4;stroke-dasharray:none;stroke-opacity:1"
         d="m 17.877113,197.19831 c -0.186977,-0.30254 -1.067938,-0.55007 -1.957691,-0.55007 -0.889752,0 -1.617731,-0.24752 -1.617731,-0.55006 0,-0.30254 -0.371294,-0.55007 -0.825098,-0.55007 -0.453804,0 -0.827938,-0.18564 -0.831408,-0.41254 -0.0035,-0.22691 -0.993588,-0.88555 -2.200261,-1.46366 -1.2066717,-0.57811 -2.1979026,-1.19694 -2.2027349,-1.37516 -0.00484,-0.17824 -0.6855378,-1.10568 -1.5126788,-2.061 -2.7286572,-3.15152 -3.1468681,-3.76155 -3.9056873,-5.69706 -0.4133797,-1.05441 -0.9472293,-3.3734 -1.1863322,-5.15332 -0.239103,-1.77991 -0.76723563,-3.44695 -1.17362801,-3.70451 -0.54927315,-0.34812 -0.56244187,-0.47046 -0.051314,-0.47673 0.37816971,-0.005 0.68758121,-0.39432 0.68758121,-0.86598 0,-0.47166 0.2475293,-0.70458 0.5500651,-0.5176 0.3355831,0.2074 0.550065,-0.62521 0.550065,-2.13534 0,-1.36141 0.2475292,-2.62827 0.550065,-2.81525 0.3025358,-0.18698 0.550065,-1.05333 0.550065,-1.92523 0,-0.87189 0.2475293,-1.73825 0.550065,-1.92522 0.3025358,-0.18698 0.5500651,-1.1771 0.5500651,-2.20026 0,-1.02317 0.2475292,-2.01329 0.550065,-2.20026 0.3025357,-0.18698 0.5537103,-0.8823 0.5581664,-1.54515 0.0093,-1.38293 1.7799025,-7.30203 2.3568855,-7.87901 0.2119357,-0.21193 0.3853382,-0.9483 0.3853382,-1.63636 0,-0.68806 0.2475293,-1.404 0.550065,-1.59098 0.3025358,-0.18698 0.550065,-0.82377 0.550065,-1.41509 0,-0.59132 0.2255839,-1.50495 0.5012974,-2.03028 0.2757133,-0.52533 0.9137613,-2.1928 1.4178833,-3.70548 1.104514,-3.31422 1.413234,-4.07998 3.215534,-7.97594 0.769755,-1.66394 1.921793,-4.263 2.560085,-5.77568 2.22078,-5.263 2.477379,-5.77568 2.890713,-5.77568 0.228683,0 0.415788,-0.49506 0.415788,-1.10013 0,-0.60507 0.19678,-1.10013 0.43729,-1.10013 0.240509,0 0.896635,-1.11388 1.458057,-2.4753 0.561421,-1.36141 1.230993,-2.47529 1.487937,-2.47529 0.256944,0 0.467171,-0.49506 0.467171,-1.10013 0,-0.60507 0.189137,-1.10013 0.420305,-1.10013 0.231167,0 0.851132,-0.92823 1.377698,-2.06274 1.107409,-2.38596 1.503251,-3.04161 4.665261,-7.72727 1.285777,-1.90534 2.337776,-3.661563 2.337776,-3.902715 0,-0.241152 0.495059,-0.88648 1.10013,-1.434062 0.605072,-0.547582 1.10013,-1.200631 1.10013,-1.45122 0,-1.0023 5.077276,-5.819032 6.878954,-6.525955 1.057148,-0.414792 1.922087,-0.955496 1.922087,-1.201565 0,-0.246069 0.445552,-0.447397 0.990117,-0.447397 0.544564,0 1.299528,-0.309412 1.677698,-0.687582 0.461914,-0.461913 2.565136,-0.687581 6.408257,-0.687581 3.843123,0 5.946346,0.225668 6.408258,0.687581 0.37817,0.37817 1.256898,0.687582 1.952731,0.687582 0.695832,0 1.265149,0.247529 1.265149,0.550065 0,0.302535 0.394683,0.550065 0.877073,0.550065 0.482396,0 2.36468,1.423293 4.18286,3.162873 3.24188,3.101731 5.924206,7.481191 5.95886,9.729081 0.0096,0.62409 0.371327,1.60207 0.803788,2.1733 0.499387,0.65964 0.616667,1.36212 0.321414,1.92523 -0.255682,0.48765 -0.639137,1.93863 -0.852134,3.22441 -0.21299,1.28577 -0.613031,2.33777 -0.888976,2.33777 -0.27594,0 -0.501714,0.3713 -0.501714,0.8251 0,0.4538 -0.24753,0.8251 -0.550065,0.8251 -0.302536,0 -0.550368,0.30941 -0.550737,0.68758 -3.68e-4,0.37817 -0.619191,1.40679 -1.375162,2.28581 -0.755971,0.87903 -1.374492,1.93103 -1.374492,2.33778 0,0.40675 -0.217501,0.73954 -0.483331,0.73954 -0.26583,0 -0.790922,0.74259 -1.166864,1.6502 -0.375942,0.9076 -0.901034,1.65019 -1.166864,1.65019 -0.265829,0 -0.483331,0.3713 -0.483331,0.8251 0,0.4538 -0.185647,0.82744 -0.412548,0.83031 -0.226902,0.003 -0.901199,1.11674 -1.498444,2.47529 -0.597244,1.35855 -1.277949,2.47008 -1.512678,2.47008 -0.23473,0 -0.426785,0.47443 -0.426785,1.05429 0,0.57986 -0.194745,1.1368 -0.432769,1.23765 -0.536275,0.22721 -3.417686,6.10899 -3.417686,6.97648 0,0.34801 -0.247529,0.63275 -0.550065,0.63275 -0.302536,0 -0.550065,0.49506 -0.550065,1.10013 0,0.60507 -0.247529,1.10013 -0.550065,1.10013 -0.302536,0 -0.550065,0.48045 -0.550065,1.06767 0,0.58721 -0.247529,1.22065 -0.550065,1.40763 -0.302536,0.18697 -0.550065,0.82041 -0.550065,1.40762 0,0.58722 -0.185697,1.06767 -0.412659,1.06767 -0.226961,0 -0.889633,1.54706 -1.472604,3.4379 -0.582971,1.89085 -1.263627,3.67306 -1.51257,3.96047 -0.248942,0.28741 -0.452622,1.04238 -0.452622,1.6777 0,0.63533 -0.204489,1.39029 -0.45442,1.6777 -0.249931,0.28741 -0.769115,1.63644 -1.153741,2.99785 -0.384628,1.36141 -0.919577,2.90007 -1.188776,3.41923 -0.2692,0.51918 -0.651267,2.32072 -0.849038,4.00344 -0.197771,1.68273 -0.572214,3.19091 -0.832097,3.35153 -0.259882,0.16062 -0.472513,1.26754 -0.472513,2.45983 0,1.19229 -0.24753,2.16779 -0.550065,2.16779 -0.302536,0 -0.550065,1.11389 -0.550065,2.4753 0,1.36141 -0.24753,2.47529 -0.550065,2.47529 -0.302536,0 -0.550065,0.72798 -0.550065,1.61773 0,0.88975 -0.215558,1.75096 -0.479018,1.91378 -0.26346,0.16283 -0.627939,0.98191 -0.809954,1.82018 -0.341576,1.57313 -2.280496,4.24608 -4.869091,6.71241 -2.231304,2.12592 -2.759747,2.50382 -4.705722,3.3651 -0.983241,0.43518 -1.787711,0.97834 -1.787711,1.20703 0,0.22868 -0.742588,0.41578 -1.650195,0.41578 -0.907607,0 -1.650195,0.24753 -1.650195,0.55007 0,0.32327 -1.914407,0.55006 -4.64309,0.55006 -2.553699,0 -4.79607,-0.24752 -4.983048,-0.55006 z"
         id="path951" />
      <path
         style="fill:none;fill-opacity:1;stroke:#ffbd59;stroke-width:5;stroke-miterlimit:4;stroke-dasharray:none;stroke-opacity:1"
         d="m 99.286736,75.083875 c -0.186978,-0.302536 -1.071297,-0.550065 -1.965155,-0.550065 -0.893857,0 -2.055013,-0.218651 -2.580345,-0.485889 -0.525333,-0.267238 -1.697738,-0.819146 -2.605345,-1.226463 -1.573802,-0.706295 -4.843037,-2.890592 -6.081582,-4.063331 -0.319512,-0.302535 -1.053587,-1.354535 -1.631277,-2.337776 -0.57769,-0.983241 -1.244505,-1.787711 -1.481812,-1.787711 -0.237307,0 -0.431467,-0.495059 -0.431467,-1.10013 0,-0.605072 -0.247529,-1.10013 -0.550065,-1.10013 -0.302536,0 -0.550065,-0.598196 -0.550065,-1.329326 0,-0.731126 -0.247299,-1.411831 -0.549552,-1.512677 -0.302254,-0.100845 -0.582421,-1.610117 -0.622595,-3.353938 -0.0603,-2.617483 0.244992,-3.768971 1.750053,-6.60078 1.002702,-1.886609 2.721343,-4.35018 3.819203,-5.474604 1.836326,-1.880757 5.730651,-4.831406 6.376586,-4.831406 0.150483,0 0.804988,-0.495059 1.454457,-1.10013 0.649467,-0.605072 1.50547,-1.10013 1.902227,-1.10013 0.396757,0 0.721376,-0.203654 0.721376,-0.452563 0,-0.24891 1.113252,-1.008548 2.473892,-1.688085 1.36064,-0.679536 2.78393,-1.538021 3.16287,-1.907743 0.37894,-0.369723 1.80287,-1.21168 3.16428,-1.871016 3.26749,-1.582455 5.73213,-3.058674 5.95904,-3.569215 0.10084,-0.226902 0.65778,-0.412549 1.23764,-0.412549 0.57986,0 1.05429,-0.247529 1.05429,-0.550065 0,-0.302535 0.28474,-0.550065 0.63276,-0.550065 0.34801,0 1.89507,-0.59056 3.43791,-1.312357 1.54283,-0.721797 4.70777,-2.200846 7.03319,-3.286776 2.32543,-1.08593 5.2339,-2.288342 6.46327,-2.672027 1.22937,-0.383684 2.23521,-0.884869 2.23521,-1.113744 0,-0.228875 0.60422,-0.416136 1.3427,-0.416136 0.73849,0 1.49568,-0.247529 1.68266,-0.550065 0.18698,-0.302536 0.94418,-0.550065 1.68266,-0.550065 0.73849,0 1.3427,-0.247529 1.3427,-0.550065 0,-0.302536 0.43318,-0.55371 0.96261,-0.558166 1.20128,-0.01011 7.1148,-1.835238 7.63645,-2.356886 0.21193,-0.211936 0.9483,-0.385338 1.63636,-0.385338 0.68806,0 1.404,-0.247529 1.59098,-0.550065 0.18698,-0.302536 1.05333,-0.550065 1.92523,-0.550065 0.87189,0 1.72208,-0.221382 1.88931,-0.49196 0.16723,-0.270578 1.23383,-0.626183 2.37024,-0.7902324 3.56325,-0.5143854 8.59796,-1.5111362 10.35622,-2.0502802 0.92909,-0.2848905 2.70907,-0.5179826 3.95551,-0.5179826 1.24644,0 2.41924,-0.2475293 2.60622,-0.5500651 0.44139,-0.7141824 3.40907,-0.7141824 3.85045,0 0.18698,0.3025358 1.30086,0.5500651 2.4753,0.5500651 1.17443,0 2.27654,0.2284851 2.44913,0.5077449 0.1726,0.2792597 1.02789,0.6645837 1.90066,0.8562756 0.87277,0.1916918 2.02217,0.829559 2.55424,1.4174827 0.53206,0.587924 1.17372,1.068952 1.42591,1.068952 1.19351,0 5.97175,5.743746 5.97175,7.178421 0,0.287369 0.24753,0.522489 0.55006,0.522489 0.30254,0 0.55007,0.604215 0.55007,1.3427 0,0.738484 0.27838,1.514747 0.61862,1.725028 0.9211,0.569274 0.27187,7.23757 -0.95987,9.8588 -0.56865,1.210143 -1.52897,2.735566 -2.13405,3.389829 -3.84242,4.15481 -4.95907,5.169467 -6.38247,5.799524 -0.87641,0.387937 -1.59347,0.892444 -1.59347,1.121127 0,0.228683 -0.44555,0.415788 -0.99012,0.415788 -0.54456,0 -1.22527,0.231012 -1.51267,0.51336 -0.46164,0.453507 -3.46138,1.051364 -10.28967,2.050764 -1.13641,0.166326 -2.20301,0.523793 -2.37023,0.794371 -0.16724,0.270578 -1.01743,0.49196 -1.88932,0.49196 -0.8719,0 -1.73825,0.247529 -1.92523,0.550065 -0.18698,0.302536 -1.06794,0.550065 -1.95769,0.550065 -0.88976,0 -1.61773,0.247529 -1.61773,0.550065 0,0.302536 -0.86636,0.550065 -1.92523,0.550065 -1.05888,0 -1.92523,0.224302 -1.92523,0.498448 0,0.274147 -1.23737,0.66863 -2.74971,0.87663 -1.51234,0.208001 -2.88836,0.602522 -3.05782,0.876715 -0.16946,0.274193 -0.78856,0.498532 -1.37578,0.498532 -0.58722,0 -1.06766,0.24753 -1.06766,0.550065 0,0.302536 -0.44572,0.550065 -0.99047,0.550065 -1.22922,0 -3.95002,1.22958 -3.95583,1.787712 -0.002,0.226901 -0.56123,0.414073 -1.24194,0.415937 -0.6807,0.0019 -1.94664,0.373158 -2.8132,0.825098 -0.86656,0.451939 -1.91855,0.821708 -2.33778,0.821708 -0.41922,0 -0.76222,0.24753 -0.76222,0.550066 0,0.302535 -0.49505,0.550065 -1.10013,0.550065 -0.60507,0 -1.10013,0.247529 -1.10013,0.550065 0,0.302535 -0.37129,0.550065 -0.82509,0.550065 -0.45381,0 -0.8251,0.247529 -0.8251,0.550065 0,0.302535 -0.49506,0.550065 -1.10013,0.550065 -0.60507,0 -1.10013,0.219981 -1.10013,0.488847 0,0.268867 -0.86635,0.651377 -1.92523,0.850022 -1.05887,0.198645 -1.92523,0.537067 -1.92523,0.752038 0,0.214976 -0.69609,0.698984 -1.54687,1.075575 -0.85077,0.376591 -2.07807,1.179603 -2.72732,1.784471 -0.64925,0.604868 -1.44704,1.099762 -1.77287,1.099762 -0.54476,0 -3.21178,1.514389 -3.85411,2.188434 -0.15126,0.158737 -0.95573,0.639456 -1.78771,1.068264 -0.83197,0.428814 -1.51268,0.985359 -1.51268,1.236772 0,0.251413 -0.37129,0.457115 -0.82509,0.457115 -0.45381,0 -0.8251,0.199894 -0.8251,0.444205 0,0.244317 -1.052,0.877794 -2.33778,1.407732 -1.28577,0.529938 -2.76759,1.196397 -3.29292,1.481022 -0.52534,0.284621 -1.56273,0.517496 -2.30532,0.517496 -0.74259,0 -1.50314,0.247529 -1.69012,0.550065 -0.18698,0.302536 -1.30086,0.550065 -2.47529,0.550065 -1.17443,0 -2.288316,-0.247529 -2.475294,-0.550065 z"
         id="path990" />
      <path
         style="fill:none;fill-opacity:1;stroke:#ffbd59;stroke-width:5;stroke-miterlimit:4;stroke-dasharray:none;stroke-opacity:1"
         d="m 207.92458,422.23268 c 0,-0.41991 -2.89119,-0.60784 -9.35111,-0.60784 -5.86736,0 -9.3511,-0.20493 -9.3511,-0.55007 0,-0.31742 -1.73105,-0.55006 -4.09303,-0.55006 -2.25116,0 -4.246,-0.24753 -4.43298,-0.55007 -0.18698,-0.30253 -1.67215,-0.55006 -3.30039,-0.55006 -1.62824,0 -3.09973,-0.22539 -3.26998,-0.50086 -0.17025,-0.27547 -2.41262,-0.67604 -4.98305,-0.89016 -2.57042,-0.21411 -4.6735,-0.60755 -4.6735,-0.8743 0,-0.26675 -0.99012,-0.48501 -2.20026,-0.48501 -1.21014,0 -2.20026,-0.24753 -2.20026,-0.55006 0,-0.30254 -0.86635,-0.55007 -1.92523,-0.55007 -1.05887,0 -1.92522,-0.24753 -1.92522,-0.55006 0,-0.30254 -0.86636,-0.55007 -1.92523,-0.55007 -1.05888,0 -1.92523,-0.22045 -1.92523,-0.48988 0,-0.26944 -0.80447,-0.61675 -1.78771,-0.7718 -2.3944,-0.37759 -6.41918,-1.44871 -8.11346,-2.15925 -0.75634,-0.31719 -1.99399,-0.82001 -2.75033,-1.11736 -0.75633,-0.29736 -1.80497,-0.7593 -2.33031,-1.02653 -0.52533,-0.26724 -1.45357,-0.48589 -2.06274,-0.48589 -0.60918,0 -1.1076,-0.23237 -1.1076,-0.51637 0,-0.28399 -1.11388,-0.68339 -2.47529,-0.88755 -1.36141,-0.20415 -2.47529,-0.53019 -2.47529,-0.72452 0,-0.19433 -0.80447,-0.68788 -1.78771,-1.09679 -0.98324,-0.40889 -3.52042,-1.54482 -5.63817,-2.52428 -2.11775,-0.97945 -4.65492,-2.12716 -5.63816,-2.55046 -0.98325,-0.42329 -1.78772,-0.95673 -1.78772,-1.18541 0,-0.22869 -0.49505,-0.41579 -1.10013,-0.41579 -0.60507,0 -1.10013,-0.18914 -1.10013,-0.42031 0,-0.44176 -4.01503,-2.33002 -4.95435,-2.33002 -0.30047,0 -0.5463,-0.24753 -0.5463,-0.55006 0,-0.30254 -0.37129,-0.55007 -0.82509,-0.55007 -0.45381,0 -0.8251,-0.24753 -0.8251,-0.55006 0,-0.30254 -0.3713,-0.55007 -0.8251,-0.55007 -0.4538,0 -0.8251,-0.24753 -0.8251,-0.55006 0,-0.30254 -0.49505,-0.55007 -1.10013,-0.55007 -0.60507,0 -1.10169,-0.18565 -1.1036,-0.41255 -0.004,-0.5165 -3.155781,-2.33777 -4.045159,-2.33777 -0.362499,0 -1.015907,-0.49506 -1.452018,-1.10013 -0.43611,-0.60508 -0.996261,-1.10013 -1.244778,-1.10013 -0.248517,0 -0.750813,-0.25404 -1.116214,-0.56454 -0.365401,-0.31049 -1.845689,-1.32761 -3.289529,-2.26027 -3.672511,-2.3723 -8.651169,-8.80209 -8.651169,-11.17274 0,-0.41939 -0.252381,-0.84666 -0.560847,-0.94948 -0.308467,-0.10282 -0.567179,-1.67051 -0.574916,-3.48374 -0.01658,-3.88543 1.966452,-8.27098 5.367962,-11.87144 2.438601,-2.58123 8.540775,-6.00209 10.706609,-6.00209 0.824019,0 1.651197,-0.24752 1.838175,-0.55006 0.186978,-0.30254 1.672153,-0.55007 3.300394,-0.55007 1.62823,0 3.11341,0.24753 3.30039,0.55007 0.18697,0.30254 1.1917,0.55006 2.23272,0.55006 1.04102,0 1.89276,0.24753 1.89276,0.55007 0,0.30254 0.40982,0.55006 0.9107,0.55006 0.50088,0 1.72201,0.61883 2.71362,1.37517 0.99161,0.75634 2.02861,1.37516 2.30444,1.37516 0.27584,0 0.94954,0.49506 1.49712,1.10013 0.54758,0.60507 1.32854,1.10013 1.73545,1.10013 0.40691,0 0.73984,0.20635 0.73984,0.45856 0,0.25221 1.36142,1.17083 3.02536,2.04138 1.66395,0.87054 3.02536,1.77807 3.02536,2.01673 0,0.23865 0.47443,0.43392 1.05429,0.43392 0.57986,0 1.1368,0.2063 1.23765,0.45845 0.24034,0.60094 16.78655,8.71234 18.75324,9.19335 0.83484,0.20418 1.65391,0.59135 1.82018,0.86037 0.16626,0.26902 0.7861,0.48913 1.37743,0.48913 0.59132,0 1.50494,0.2273 2.03028,0.50511 2.63437,1.39315 6.29236,2.79528 7.29257,2.79528 0.61808,0 2.01242,0.37129 3.09853,0.82509 1.0861,0.45381 2.67248,0.8251 3.52529,0.8251 0.8528,0 1.70354,0.24753 1.89051,0.55007 0.18698,0.30253 1.19171,0.55006 2.23273,0.55006 1.04102,0 1.89276,0.24753 1.89276,0.55007 0,0.30253 0.74595,0.55006 1.65766,0.55006 0.91171,0 2.08748,0.22138 2.61281,0.49195 1.41538,0.72899 8.46872,1.74694 14.58683,2.1052 2.95939,0.1733 5.51117,0.52619 5.67063,0.78419 0.41933,0.67851 27.03234,0.60004 27.45322,-0.081 0.18697,-0.30253 2.11993,-0.54482 4.29546,-0.53842 4.2339,0.0125 14.88304,-1.45574 16.46203,-2.26963 0.52533,-0.27079 1.81025,-0.49234 2.85537,-0.49234 1.04513,0 2.05321,-0.24753 2.24019,-0.55006 0.18698,-0.30254 1.1422,-0.55007 2.12271,-0.55007 0.98052,0 2.01791,-0.20449 2.30531,-0.45442 0.28741,-0.24993 1.63645,-0.76003 2.99786,-1.13356 6.75954,-1.8546 8.60331,-2.4122 9.48116,-2.86736 0.52533,-0.27239 1.45357,-0.49524 2.06274,-0.49524 0.60918,0 1.10759,-0.24753 1.10759,-0.55007 0,-0.30254 0.37466,-0.55006 0.83257,-0.55006 0.4579,0 1.26237,-0.22672 1.78771,-0.50383 0.52533,-0.2771 1.94526,-0.91266 3.15541,-1.41236 1.21014,-0.4997 2.69532,-1.11573 3.30039,-1.36897 4.15311,-1.73815 13.36348,-6.46246 14.02666,-7.19474 0.15126,-0.16703 1.14138,-0.74204 2.20026,-1.2778 2.94927,-1.49224 4.30268,-2.29192 5.35934,-3.16662 0.53152,-0.43999 1.70899,-1.1606 2.6166,-1.60136 0.90761,-0.44076 1.97728,-1.11078 2.37707,-1.48895 0.39977,-0.37817 0.89483,-0.68873 1.10013,-0.69013 0.20529,-0.002 1.1643,-0.74399 2.13113,-1.6502 0.96684,-0.9062 1.95695,-1.64979 2.20026,-1.65241 0.24331,-0.003 1.35409,-0.86898 2.46841,-1.92523 1.11431,-1.05625 2.23854,-1.92046 2.49828,-1.92046 0.25974,0 1.56545,-1.11388 2.90157,-2.47529 1.33613,-1.36141 2.69063,-2.4753 3.01001,-2.4753 0.7699,0 15.14214,-14.41947 15.14214,-15.19189 0,-0.33024 0.69564,-1.19328 1.54587,-1.91786 0.85023,-0.72458 2.27353,-2.30734 3.16288,-3.51724 0.88935,-1.20989 2.08058,-2.69507 2.64718,-3.30039 0.5666,-0.60531 1.91209,-2.46198 2.98997,-4.12593 1.07787,-1.66395 2.29326,-3.3606 2.70085,-3.77033 0.40758,-0.40973 1.23058,-1.64738 1.82886,-2.75032 1.40967,-2.59875 2.29466,-3.9875 3.10988,-4.88013 0.36215,-0.39653 1.56112,-2.5726 2.6644,-4.83572 1.10328,-2.26311 2.22365,-4.24929 2.48971,-4.41373 0.45045,-0.27839 1.00629,-1.39908 3.12614,-6.30296 0.45773,-1.05887 1.29471,-2.89995 1.85997,-4.09129 0.56525,-1.19133 1.02773,-2.61463 1.02773,-3.16287 0,-0.54825 0.24753,-0.99681 0.55007,-0.99681 0.30253,0 0.55006,-0.37466 0.55006,-0.83256 0,-0.45791 0.21731,-1.26238 0.48292,-1.78772 1.17224,-2.31857 2.26741,-5.18369 2.26741,-5.93186 0,-0.79008 0.23298,-1.37904 1.56431,-3.95438 0.34977,-0.6766 0.63595,-1.96152 0.63595,-2.85537 0,-0.89387 0.22018,-1.76128 0.48929,-1.9276 0.2691,-0.16632 0.61673,-1.10916 0.7725,-2.09521 0.15576,-0.98604 0.6914,-3.40175 1.1903,-5.36823 0.4989,-1.96648 1.04819,-5.14953 1.22064,-7.07343 0.207,-2.30937 0.47861,-3.24395 0.79935,-2.75033 0.30402,0.46791 0.4524,-0.57951 0.39655,-2.7992 -0.057,-2.26623 0.14026,-3.62339 0.54641,-3.75878 0.85722,-0.28573 0.81324,-3.80733 -0.0519,-4.15643 -0.55007,-0.22196 -0.55007,-0.28613 0,-0.32087 0.4264,-0.0269 0.68758,-0.86686 0.68758,-2.21122 0,-1.19229 0.24753,-2.32078 0.55006,-2.50776 0.78796,-0.48699 0.68031,-3.43119 -0.13751,-3.76119 -0.55007,-0.22196 -0.55007,-0.28613 0,-0.32087 0.87613,-0.0553 1.01092,-29.48218 0.13751,-30.02197 -0.30253,-0.18698 -0.55006,-2.30559 -0.55006,-4.70802 1e-5,-2.40243 -0.212,-4.36806 -0.47113,-4.36806 -0.25913,0 -0.64324,-2.27972 -0.85358,-5.06606 -0.21034,-2.78632 -0.58781,-5.3235 -0.83883,-5.63816 -0.25102,-0.31466 -0.60227,-1.43846 -0.78057,-2.49734 -0.17828,-1.05887 -0.4825,-2.85575 -0.67602,-3.99307 -0.19352,-1.13731 -0.57205,-2.20391 -0.84115,-2.37024 -0.26911,-0.16632 -0.48929,-1.03037 -0.48929,-1.92013 0,-0.88975 -0.24753,-1.61773 -0.55007,-1.61773 -0.30253,0 -0.55006,-0.61017 -0.55006,-1.35593 0,-1.4418 -1.32924,-5.9824 -2.21759,-7.57516 -0.29301,-0.52533 -0.53274,-1.45357 -0.53274,-2.06274 0,-0.60918 -0.24753,-1.1076 -0.55006,-1.1076 -0.30254,0 -0.55007,-0.61882 -0.55007,-1.37516 0,-0.75634 -0.24753,-1.37516 -0.55006,-1.37516 -0.30254,0 -0.55007,-0.48045 -0.55007,-1.06767 0,-0.58721 -0.24753,-1.22065 -0.55006,-1.40762 -0.30254,-0.18698 -0.55007,-0.73386 -0.55007,-1.21529 0,-1.04487 -2.7989,-6.95688 -3.41768,-7.21904 -0.23803,-0.10085 -0.43277,-0.65779 -0.43277,-1.23765 0,-0.57986 -0.24753,-1.05429 -0.55007,-1.05429 -0.30253,0 -0.55006,-0.37311 -0.55006,-0.82913 0,-0.94999 -2.81608,-6.50373 -3.43791,-6.7801 -0.2269,-0.10085 -0.41255,-0.48735 -0.41255,-0.8589 0,-0.37154 -0.43317,-1.16214 -0.96261,-1.75688 -0.52944,-0.59474 -1.45767,-2.06293 -2.06274,-3.26265 -1.0052,-1.99305 -1.78263,-3.1382 -3.30172,-4.86339 -0.30327,-0.34441 -1.04026,-1.55443 -1.63777,-2.68894 -0.5975,-1.13451 -1.27761,-2.06274 -1.51135,-2.06274 -0.23374,0 -0.42498,-0.27199 -0.42498,-0.60441 0,-0.33242 -0.74259,-1.29809 -1.65019,-2.14592 -0.90761,-0.84783 -1.6502,-1.76192 -1.6502,-2.03132 0,-0.26939 -0.86635,-1.4083 -1.92523,-2.53091 -1.05887,-1.1226 -1.92522,-2.16241 -1.92522,-2.31067 0,-0.83782 -16.47106,-17.582984 -20.02211,-20.355317 -1.16254,-0.907607 -2.88821,-2.326946 -3.83482,-3.154089 -0.9466,-0.827139 -1.9312,-1.507844 -2.18799,-1.512679 -0.25678,-0.0048 -1.16057,-0.751373 -2.0084,-1.65898 -0.84783,-0.907607 -1.79287,-1.650195 -2.10008,-1.650195 -0.30721,0 -0.64107,-0.190119 -0.74192,-0.422488 -0.10085,-0.23237 -1.50556,-1.26284 -3.12158,-2.289932 -1.61602,-1.027092 -3.22496,-2.137096 -3.57542,-2.466679 -0.35046,-0.329582 -1.62056,-1.093699 -2.82245,-1.698039 -1.20188,-0.604346 -2.67185,-1.531981 -3.26659,-2.061418 -0.59475,-0.529438 -1.40597,-0.962614 -1.80273,-0.962614 -0.39675,0 -0.72137,-0.189135 -0.72137,-0.420305 0,-0.441757 -4.01504,-2.33002 -4.95436,-2.33002 -0.30047,0 -0.54629,-0.24753 -0.54629,-0.550065 0,-0.302536 -0.49506,-0.550065 -1.10013,-0.550065 -0.60508,0 -1.10013,-0.24753 -1.10013,-0.550065 0,-0.302536 -0.47444,-0.550065 -1.0543,-0.550065 -0.57985,0 -1.1368,-0.195608 -1.23764,-0.434683 -0.28394,-0.673124 -6.40574,-3.415773 -7.62427,-3.415773 -0.5968,0 -1.0851,-0.247529 -1.0851,-0.550065 0,-0.302535 -0.49505,-0.550065 -1.10013,-0.550065 -0.60507,0 -1.10013,-0.247529 -1.10013,-0.550065 0,-0.302535 -0.61882,-0.550065 -1.37516,-0.550065 -0.75634,0 -1.37516,-0.192668 -1.37516,-0.428152 0,-0.466431 -5.82023,-2.322173 -7.28311,-2.322173 -0.49662,0 -1.05592,-0.247529 -1.2429,-0.550065 -0.18698,-0.302536 -1.06794,-0.550065 -1.95769,-0.550065 -0.88975,0 -1.61773,-0.247529 -1.61773,-0.550065 0,-0.302536 -0.72798,-0.550065 -1.61773,-0.550065 -0.88975,0 -1.75381,-0.22018 -1.92013,-0.489289 -0.16632,-0.26911 -1.10916,-0.626664 -2.09521,-0.794566 -0.98604,-0.167902 -3.03045,-0.576241 -4.54313,-0.907419 -1.51268,-0.331178 -4.2355,-0.84638 -6.05072,-1.144892 -1.81521,-0.298513 -3.7302,-0.783876 -4.25554,-1.078585 -0.52533,-0.294709 -1.30918,-0.535834 -1.74187,-0.535834 -0.4327,0 -0.86923,-0.189891 -0.97008,-0.421981 -0.10084,-0.232089 -1.45266,-1.34487 -3.00404,-2.472847 -2.80781,-2.041501 -5.70532,-5.301754 -5.70532,-6.419576 0,-0.322721 -0.24753,-0.586766 -0.55007,-0.586766 -0.30253,0 -0.55006,-0.495059 -0.55006,-1.10013 0,-0.605072 -0.24753,-1.10013 -0.55007,-1.10013 -0.30253,0 -0.55006,-0.618824 -0.55006,-1.375163 0,-0.756339 -0.24753,-1.375163 -0.55007,-1.375163 -0.71735,0 -0.71735,-4.232201 0,-4.675552 0.30254,-0.186978 0.55007,-0.773916 0.55007,-1.304308 0,-3.442792 6.44614,-10.884578 11.28012,-13.0223899 1.67911,-0.7425854 3.65009,-1.3501553 4.37995,-1.3501553 0.72986,0 1.48,-0.2475293 1.66698,-0.5500651 0.42453,-0.6869053 4.82019,-0.7272253 5.52815,-0.050708 0.28741,0.2746464 1.76021,0.620349 3.27289,0.7682279 3.85283,0.3766519 13.64501,2.5508174 14.27418,3.1693084 0.28741,0.282531 1.29816,0.513692 2.2461,0.513692 0.94795,0 1.89318,0.169641 2.10052,0.37698 0.60356,0.603558 4.37114,1.805955 5.68711,1.814998 0.66285,0.0046 1.34485,0.234273 1.51556,0.510485 0.17071,0.276211 1.34384,0.676803 2.60694,0.890204 1.26311,0.213401 3.12582,0.853763 4.13934,1.423025 1.01353,0.569263 2.20055,1.035023 2.63785,1.035023 0.43728,0 1.60552,0.494133 2.59607,1.098074 0.99055,0.603941 2.13489,1.098999 2.54297,1.10013 0.74747,0.0021 1.79361,0.432125 8.33411,3.42602 6.56296,3.004172 9.62366,4.497173 9.90117,4.829752 0.15127,0.181286 1.14139,0.74901 2.20026,1.261608 1.89321,0.916494 5.0752,2.742696 11.01861,6.323778 1.65443,0.996844 3.50311,2.110726 4.10818,2.475293 0.60507,0.364566 1.22389,0.793823 1.37516,0.953903 0.79329,0.839507 6.13124,4.384498 6.60205,4.384498 0.30184,0 0.5488,0.19416 0.5488,0.431467 0,0.237306 0.68479,0.835987 1.52177,1.330401 0.83698,0.494413 2.3199,1.661664 3.29538,2.59389 0.97549,0.932227 1.97484,1.694957 2.22078,1.694957 0.24595,0 1.28687,0.866353 2.31317,1.925228 1.0263,1.058875 2.08847,1.925227 2.36036,1.925227 0.2719,0 2.58351,2.042117 5.13691,4.538037 2.55339,2.49592 4.933,4.637735 5.28801,4.759591 0.82218,0.282206 7.32558,6.76794 7.62061,7.599902 0.12185,0.343626 2.01614,2.490123 4.20952,4.769994 2.19339,2.279871 3.98797,4.353258 3.98797,4.607537 0,0.254273 0.86636,1.30202 1.92523,2.32832 1.05888,1.026301 1.92523,2.097827 1.92523,2.38116 0,0.283339 0.43419,0.915485 0.96486,1.404773 1.25358,1.155819 5.08585,5.932495 5.08585,6.339186 0,0.172605 1.11389,1.778492 2.4753,3.568629 1.36141,1.790137 2.47529,3.487242 2.47529,3.771345 0,0.284097 0.44676,0.920862 0.9928,1.415022 0.54604,0.49416 1.33483,1.77017 1.75286,2.83558 0.41804,1.0654 0.94978,1.9371 1.18165,1.9371 0.23188,0 0.846,0.92824 1.36472,2.06275 0.51872,1.1345 1.27186,2.45235 1.67364,2.92854 0.91669,1.08645 10.06777,19.28685 10.07847,20.04486 0.004,0.30704 0.75374,2.08708 1.66536,3.95565 0.91161,1.86857 1.81937,4.21641 2.01723,5.21743 0.19787,1.00102 0.81341,2.63203 1.36788,3.62447 0.55446,0.99245 1.00812,2.29198 1.00812,2.88785 0,0.59586 0.21944,1.08339 0.48763,1.08339 0.2682,0 0.61821,0.68071 0.77782,1.51268 0.54926,2.86327 2.91716,11.10426 3.30085,11.48796 0.21136,0.21135 0.38428,1.07101 0.38428,1.91033 0,0.83933 0.24753,1.67904 0.55007,1.86602 0.30254,0.18697 0.55006,1.17709 0.55006,2.20026 0,1.02316 0.24753,2.01328 0.55007,2.20026 0.30254,0.18697 0.55888,1.12982 0.56966,2.0952 0.0108,0.96539 0.3782,3.24043 0.8165,5.05564 0.43831,1.81522 0.80078,4.33778 0.80551,5.6057 0.005,1.26792 0.25612,2.4583 0.55865,2.64528 0.30254,0.18697 0.55007,2.04344 0.55007,4.12548 0,2.08204 0.24753,3.93851 0.55006,4.12549 0.31485,0.19459 0.55007,3.03107 0.55007,6.63325 0,3.82881 0.21541,6.29328 0.55006,6.29328 0.30254,0 0.55007,0.49506 0.55007,1.10013 0,0.60507 0.27784,1.10013 0.61741,1.10013 0.44651,0 0.4407,0.21294 -0.021,0.76924 -0.35113,0.42308 -0.60963,1.59884 -0.57446,2.61281 0.0984,2.83702 -1.08541,21.10813 -1.68665,26.032 -0.29456,2.41235 -0.53557,5.44458 -0.53557,6.7383 0,1.29371 -0.24753,2.3522 -0.55007,2.3522 -0.30253,0 -0.55006,1.09927 -0.55006,2.44283 0,1.34355 -0.24753,2.59581 -0.55007,2.78279 -0.30253,0.18698 -0.55006,1.30086 -0.55006,2.47529 0,1.17443 -0.22139,2.27216 -0.49196,2.43939 -0.27058,0.16722 -0.63418,1.23382 -0.80801,2.37023 -0.86279,5.64068 -1.72036,9.49207 -2.11351,9.49207 -0.24033,0 -0.43696,0.74259 -0.43696,1.6502 0,0.9076 -0.24752,1.65019 -0.55006,1.65019 -0.30254,0 -0.55007,0.48342 -0.55007,1.07425 0,0.59084 -0.27834,1.7666 -0.61855,2.61281 -1.58776,3.9493 -3.2319,9.1769 -3.2319,10.27591 0,0.48884 -0.24753,0.88879 -0.55007,0.88879 -0.30253,0 -0.55006,0.48045 -0.55006,1.06766 0,0.58722 -0.24753,1.22065 -0.55007,1.40763 -0.30253,0.18698 -0.55006,0.82041 -0.55006,1.40763 0,0.58721 -0.24753,1.06766 -0.55007,1.06766 -0.30253,0 -0.55006,0.48045 -0.55006,1.06767 0,0.58721 -0.22011,1.2037 -0.48913,1.36996 -0.26902,0.16627 -0.65416,0.98534 -0.85587,1.82018 -0.53222,2.20282 -1.60871,4.54323 -2.08967,4.54323 -0.22868,0 -0.41579,0.49506 -0.41579,1.10013 0,0.60507 -0.18913,1.10013 -0.4203,1.10013 -0.23117,0 -0.86639,1.052 -1.41159,2.33778 -0.54521,1.28578 -1.28285,3.01848 -1.6392,3.85045 -0.35635,0.83198 -0.83502,1.51268 -1.0637,1.51268 -0.22869,0 -0.41579,0.49506 -0.41579,1.10013 0,0.60508 -0.24753,1.10013 -0.55007,1.10013 -0.30253,0 -0.55006,0.38165 -0.55006,0.8481 0,0.46645 -0.50464,1.38977 -1.12142,2.0518 -0.61678,0.66203 -1.27256,1.8059 -1.45729,2.54192 -0.31217,1.2438 -1.0951,2.42657 -2.78442,4.20641 -0.37817,0.39844 -0.68759,1.11341 -0.68759,1.58882 0,0.47541 -0.23085,0.86438 -0.51299,0.86438 -0.28215,0 -0.68373,0.53792 -0.89239,1.19537 -0.20867,0.65744 -0.84417,1.69424 -1.41224,2.30398 -0.56805,0.60974 -1.03283,1.37859 -1.03283,1.70856 0,0.32997 -0.49506,0.95676 -1.10013,1.39287 -0.60507,0.43612 -1.10013,1.05023 -1.10013,1.3647 0,0.31448 -0.61882,1.23915 -1.37516,2.05482 -0.75634,0.81568 -1.37517,1.62888 -1.37517,1.8071 0,0.17822 -0.61882,0.94286 -1.37516,1.6992 -0.75634,0.75634 -1.37516,1.60069 -1.37516,1.87632 0,0.27564 -0.98703,1.56392 -2.1934,2.86284 -1.20638,1.29893 -2.19649,2.52779 -2.20026,2.7308 -0.004,0.20302 -1.06866,1.44067 -2.3664,2.75033 -1.29775,1.30966 -3.09234,3.35327 -3.98798,4.54134 -2.09585,2.78019 -13.17289,13.85619 -15.97704,15.97555 -1.18433,0.89512 -3.06216,2.56453 -4.17295,3.70981 -1.11079,1.14528 -2.23499,2.08233 -2.49821,2.08233 -0.26323,0 -1.39709,0.86635 -2.5197,1.92523 -1.1226,1.05887 -2.28806,1.92523 -2.58989,1.92523 -0.30183,0 -0.55048,0.18564 -0.55254,0.41254 -0.002,0.22691 -0.93031,1.02334 -2.06275,1.76986 -1.76499,1.1635 -3.60069,2.50443 -5.90944,4.31666 -0.30254,0.23748 -1.35454,0.90594 -2.33778,1.48547 -0.98324,0.57954 -1.78771,1.24786 -1.78771,1.48517 0,0.2373 -0.32462,0.43147 -0.72138,0.43147 -0.39675,0 -1.20122,0.43386 -1.78771,0.96414 -0.58648,0.53028 -2.11549,1.45851 -3.3978,2.06274 -1.2823,0.60423 -2.3343,1.28425 -2.33777,1.51115 -0.003,0.2269 -0.37761,0.41255 -0.83141,0.41255 -0.4538,0 -0.8251,0.24753 -0.8251,0.55007 0,0.30253 -0.32462,0.55006 -0.72138,0.55006 -0.39675,0 -1.25275,0.49506 -1.90223,1.10013 -0.64946,0.60507 -1.51518,1.10013 -1.92381,1.10013 -0.40863,0 -1.22345,0.36342 -1.81071,0.80761 -0.58726,0.44417 -1.50092,0.81547 -2.03036,0.82509 -0.52944,0.01 -0.96261,0.26503 -0.96261,0.56756 0,0.30254 -0.3713,0.55007 -0.8251,0.55007 -0.45381,0 -0.8251,0.24753 -0.8251,0.55006 0,0.30254 -0.49506,0.55007 -1.10013,0.55007 -0.60507,0 -1.10013,0.24753 -1.10013,0.55006 0,0.30254 -0.44775,0.55007 -0.995,0.55007 -0.54724,0 -1.47548,0.36342 -2.06274,0.8076 -0.58726,0.44418 -1.50092,0.81547 -2.03036,0.8251 -0.52944,0.01 -0.96261,0.26502 -0.96261,0.56756 0,0.30253 -0.36377,0.55006 -0.80837,0.55006 -0.4446,0 -1.68978,0.49506 -2.76706,1.10013 -1.07728,0.60507 -2.32245,1.10013 -2.76706,1.10013 -0.4446,0 -0.80836,0.21998 -0.80836,0.48885 0,0.26887 -0.89683,0.65709 -1.99295,0.86273 -1.09612,0.20563 -2.39564,0.57559 -2.88784,0.82214 -0.49219,0.24653 -1.63748,0.75354 -2.54509,1.12667 -0.9076,0.37313 -2.08001,0.89707 -2.60534,1.16431 -0.52534,0.26724 -1.43896,0.48589 -2.03028,0.48589 -0.59133,0 -1.22811,0.24753 -1.41509,0.55006 -0.18698,0.30254 -0.79199,0.55007 -1.34446,0.55007 -1.16167,0 -6.45481,1.51557 -7.86167,2.25101 -0.52533,0.27462 -1.56272,0.49931 -2.30531,0.49931 -0.74259,0 -1.50315,0.24753 -1.69012,0.55007 -0.18698,0.30253 -1.05333,0.55006 -1.92523,0.55006 -0.8719,0 -1.73825,0.24753 -1.92523,0.55007 -0.18698,0.30253 -1.1917,0.55006 -2.23272,0.55006 -1.04102,0 -1.89277,0.21557 -1.89277,0.47904 0,0.26347 -2.04211,0.65667 -4.53803,0.87376 -2.49592,0.2171 -4.78557,0.5959 -5.0881,0.84176 -0.54298,0.44127 -3.74611,0.8641 -10.72627,1.41591 -1.96648,0.15546 -4.07048,0.51724 -4.67555,0.80395 -0.60508,0.28671 -4.93684,0.62362 -9.62614,0.74868 -4.68931,0.12506 -9.57801,0.40193 -10.86379,0.61527 -1.57396,0.26116 -2.33777,0.1893 -2.33777,-0.21994 z"
         id="path1029" />
      <path
         style="fill:none;fill-opacity:1;stroke:#ffbd59;stroke-width:5;stroke-miterlimit:4;stroke-dasharray:none;stroke-opacity:1"
         d="m 52.256177,340.21521 c 0,-0.30253 -1.113882,-0.55006 -2.475293,-0.55006 -1.361411,0 -2.475292,-0.24753 -2.475292,-0.55007 0,-0.30253 -0.618823,-0.55006 -1.375163,-0.55006 -0.756339,0 -1.375162,-0.24753 -1.375162,-0.55007 0,-0.30253 -0.286047,-0.55006 -0.635661,-0.55006 -0.349613,0 -1.446979,-0.61882 -2.438591,-1.37516 -0.991612,-0.75634 -1.960892,-1.37517 -2.153955,-1.37517 -0.71323,0 -3.802819,-4.01156 -5.189642,-6.73829 -0.423143,-0.83198 -0.975054,-1.51268 -1.226467,-1.51268 -0.251413,0 -0.457115,-0.28038 -0.457115,-0.62306 0,-0.34268 -0.455478,-1.02339 -1.012174,-1.51268 -0.556695,-0.48929 -1.165939,-1.51336 -1.353875,-2.27573 -0.187936,-0.76235 -0.846339,-1.92777 -1.463118,-2.58981 -0.61678,-0.66203 -1.121418,-1.58534 -1.121418,-2.0518 0,-0.46645 -0.247529,-0.84809 -0.550065,-0.84809 -0.302536,0 -0.550065,-0.3713 -0.550065,-0.8251 0,-0.4538 -0.212057,-0.8251 -0.471237,-0.8251 -0.259181,0 -1.187415,-1.60834 -2.062744,-3.5741 -0.875329,-1.96577 -1.777154,-3.57471 -2.004055,-3.57543 -0.226902,-7.2e-4 -0.412549,-0.49637 -0.412549,-1.10144 0,-0.60507 -0.201329,-1.10013 -0.447398,-1.10013 -0.246068,0 -0.803009,-0.917 -1.237646,-2.03777 -0.434637,-1.12078 -1.594719,-3.64376 -2.57796,-5.60663 -0.983241,-1.96287 -1.787711,-3.89246 -1.787711,-4.28798 0,-0.39551 -0.195005,-0.71912 -0.433343,-0.71912 -0.238339,0 -0.919045,-1.6089 -1.512679,-3.57535 -0.593635,-1.96645 -1.264983,-3.57539 -1.491885,-3.57543 -0.226902,-3e-5 -0.412549,-0.49848 -0.412549,-1.10766 0,-0.60917 -0.218649,-1.53741 -0.485888,-2.06274 -0.267238,-0.52533 -0.791176,-1.69774 -1.1643066,-2.60535 -0.3731306,-0.9076 -0.8764461,-2.04699 -1.1184792,-2.53196 -0.2420335,-0.48497 -0.6130095,-2.03507 -0.8243918,-3.44467 -0.2113817,-1.40959 -0.6032981,-2.69823 -0.870925,-2.86363 -0.2676265,-0.16541 -0.4865942,-1.02871 -0.4865942,-1.91847 0,-0.88975 -0.2475292,-1.61773 -0.550065,-1.61773 -0.3025357,0 -0.550065,-0.86635 -0.550065,-1.92523 0,-1.05887 -0.2475293,-1.92522 -0.550065,-1.92522 -0.3025358,0 -0.550065,-0.86636 -0.550065,-1.92523 0,-1.05888 -0.2475293,-1.92523 -0.5500651,-1.92523 -0.3025357,0 -0.5539316,-0.80447 -0.5586575,-1.78771 -0.00473,-0.98324 -0.3672024,-3.27289 -0.8055034,-5.0881 -0.438301,-1.81522 -0.8057282,-4.12113 -0.816505,-5.12426 -0.010777,-1.00313 -0.2666326,-2.28547 -0.5685686,-2.84965 -0.40231519,-0.75173 -0.32883993,-1.2459 0.2750325,-1.84977 0.4532039,-0.45321 0.824007,-1.33675 0.824007,-1.96343 0,-0.62668 0.2475292,-1.13942 0.550065,-1.13942 0.3025358,0 0.550065,-0.34837 0.550065,-0.77416 0,-1.2002 6.7209249,-7.63352 9.4154299,-9.01253 1.326032,-0.67864 4.081791,-1.43283 6.123907,-1.67599 4.018764,-0.4785 10.721872,0.0994 11.624723,1.00229 0.30757,0.30757 1.00477,0.55922 1.549334,0.55922 0.544565,0 0.990117,0.24753 0.990117,0.55007 0,0.30253 0.302234,0.55006 0.671631,0.55006 0.898805,0 7.029279,6.10155 7.029279,6.99611 0,0.38764 0.24753,0.7048 0.550065,0.7048 0.302536,0 0.550065,0.49506 0.550065,1.10013 0,0.60507 0.219435,1.10013 0.487634,1.10013 0.268198,0 0.607675,0.68071 0.754393,1.51268 1.202541,6.81905 2.797111,14.33219 3.208886,15.11932 0.27482,0.52534 0.499673,1.7011 0.499673,2.61281 0,0.91172 0.247529,1.65766 0.550065,1.65766 0.302535,0 0.550065,0.49842 0.550065,1.1076 0,0.60917 0.222859,1.53741 0.495242,2.06274 0.272384,0.52533 0.922011,2.44032 1.443615,4.25554 0.521604,1.81521 1.165097,3.73021 1.429985,4.25554 0.264887,0.52533 0.481613,1.45357 0.481613,2.06274 0,0.60918 0.247529,1.1076 0.550065,1.1076 0.302536,0 0.550065,0.49506 0.550065,1.10013 0,0.60507 0.247529,1.10013 0.550065,1.10013 0.302536,0 0.550065,0.44873 0.550065,0.99718 0,0.54845 0.618823,2.27994 1.375162,3.84776 0.75634,1.56781 1.375163,3.07869 1.375163,3.35749 0,0.27882 0.19793,0.58944 0.439843,0.69029 0.395392,0.16482 1.933952,3.20519 4.824857,9.53446 0.552733,1.21014 1.38986,2.57155 1.860281,3.02535 0.470421,0.45381 1.297664,1.69145 1.838312,2.75033 1.403584,2.74895 2.243649,4.14782 3.138137,5.22562 0.430179,0.51833 1.039343,1.39291 1.353688,1.94351 0.314346,0.55061 1.252245,2.16432 2.084219,3.58604 0.831973,1.42173 1.512679,3.24686 1.512679,4.05585 0,0.809 0.266077,1.73698 0.591281,2.06218 0.686575,0.68658 -0.412725,7.32966 -1.212915,7.32966 -0.263173,0 -0.478496,0.37355 -0.478496,0.8301 0,0.45656 -0.735058,1.59928 -1.633463,2.53937 -0.898404,0.9401 -1.78144,2.17549 -1.962296,2.74532 -0.180856,0.56983 -0.598196,1.03605 -0.927426,1.03605 -0.329225,0 -1.40991,0.61883 -2.401523,1.37517 -0.991614,0.75634 -2.066974,1.37516 -2.389697,1.37516 -0.322724,0 -0.586766,0.24753 -0.586766,0.55006 0,0.30254 -0.604213,0.55007 -1.342697,0.55007 -0.738485,0 -1.495682,0.24753 -1.68266,0.55006 -0.186978,0.30254 -1.31547,0.55007 -2.507758,0.55007 -1.192288,0 -2.167795,0.24753 -2.167795,0.55006 0,0.30254 -0.618823,0.55007 -1.375163,0.55007 -0.756339,0 -1.375162,-0.24753 -1.375162,-0.55007 z"
         id="path1068" />
    </g>
  </g>
</svg>
