<?xml version="1.0" encoding="UTF-8" standalone="no"?>
<svg
   width="650px"
   height="265px"
   viewBox="0 0 650 265"
   version="1.1"
   id="svg156"
   sodipodi:docname="tecnologia.svg"
   inkscape:version="1.1.2 (b8e25be833, 2022-02-05)"
   xmlns:inkscape="http://www.inkscape.org/namespaces/inkscape"
   xmlns:sodipodi="http://sodipodi.sourceforge.net/DTD/sodipodi-0.dtd"
   xmlns="http://www.w3.org/2000/svg"
   xmlns:svg="http://www.w3.org/2000/svg">
  <defs
     id="defs160" />
  <sodipodi:namedview
     id="namedview158"
     pagecolor="#ffffff"
     bordercolor="#666666"
     borderopacity="1.0"
     inkscape:pageshadow="2"
     inkscape:pageopacity="0.0"
     inkscape:pagecheckerboard="0"
     showgrid="false"
     inkscape:zoom="1.6128129"
     inkscape:cx="363.96037"
     inkscape:cy="124.31696"
     inkscape:window-width="1920"
     inkscape:window-height="991"
     inkscape:window-x="-9"
     inkscape:window-y="-9"
     inkscape:window-maximized="1"
     inkscape:current-layer="svg156" />
  <!-- Generator: Sketch 59 (86127) - https://sketch.com -->
  <title
     id="title2">Group 32</title>
  <desc
     id="desc4">Created with Sketch.</desc>
  <g
     id="g37415"
     style="stroke:#ffbd59;stroke-width:3.5;stroke-miterlimit:4;stroke-dasharray:none;stroke-opacity:1"
     transform="matrix(-1,0,0,1,753.43488,162.10509)" />
  <path
     id="rect38443"
     style="opacity:1;fill:none;fill-opacity:0.321569;stroke:#ffbd59;stroke-width:3.65258;stroke-miterlimit:4;stroke-dasharray:none;stroke-opacity:1"
     d="m 95.871209,250.56416 217.963161,0.75047 c 2.00784,6.04817 -1.32592,10.83182 -2.82178,12.43584 H 99.833701 C 95.272827,260.1272 95.10169,254.9596 95.871209,250.56416 Z"
     sodipodi:nodetypes="ccccc" />
  <path
     id="rect39487"
     style="color:#000000;opacity:1;fill:#ffbd59;stroke-width:0.035;stroke-miterlimit:4;stroke-dasharray:none"
     d="m 219.53516,248.55273 v 2.5 h 71.64257 c 6.46675,0 11.71289,-5.24614 11.71289,-11.71289 V 130.95508 c 0,-6.46674 -5.24614,-11.71094 -11.71289,-11.71094 h -71.64257 v 2.5 h 71.64257 c 5.12499,0 9.21289,4.08595 9.21289,9.21094 v 108.38476 c 0,5.12499 -4.0879,9.21289 -9.21289,9.21289 z" />
  <path
     id="path3684"
     style="color:#000000;opacity:1;fill:#ffbd59;stroke-width:0.035;stroke-miterlimit:4;stroke-dasharray:none"
     d="m 218.53516,248.55273 v 2.5 h 1 v -2.5 z" />
  <path
     id="path3682"
     style="color:#000000;opacity:1;fill:#ffbd59;stroke-width:3.5;stroke-miterlimit:4;stroke-dasharray:none"
     d="m 110.23633,181.26367 h -2.5 v 58.07617 c 0,6.46675 5.24419,11.71289 11.71094,11.71289 h 99.08789 v -2.5 h -99.08789 c -5.12499,0 -9.21094,-4.0879 -9.21094,-9.21289 z" />
  <path
     id="path3680"
     style="color:#000000;opacity:1;fill:#ffbd59;stroke-width:0.035;stroke-miterlimit:4;stroke-dasharray:none"
     d="m 218.53516,119.24414 v 2.5 h 1 v -2.5 z" />
  <path
     id="path3551"
     style="opacity:1;fill:none;fill-opacity:0.321569;stroke:#ffbd59;stroke-width:3.5;stroke-miterlimit:4;stroke-dasharray:none"
     d="m 219.35783,238.55851 -99.09401,10e-6 c -0.45988,0 -0.83012,-0.37023 -0.83012,-0.83012 v -56.9963" />
  <path
     id="path3530"
     style="opacity:1;fill:none;fill-opacity:0.321569;stroke:#ffbd59;stroke-width:3.5;stroke-miterlimit:4;stroke-dasharray:none"
     d="m 219.35784,132.72212 h 72.70723 c 0.45989,0 0.83012,0.37023 0.83012,0.83012 V 237.7284 c 0,0.45989 -0.37023,0.83012 -0.83012,0.83012 l -72.70724,-10e-6" />
  <path
     id="path44509"
     style="color:#000000;opacity:1;fill:#ffbd59;stroke:#ffbd59;stroke-width:0.035;stroke-miterlimit:4;stroke-dasharray:none;stroke-opacity:1"
     d="m 509.88086,197.98828 h -2.5 v 9.11524 c 0,4.87299 -3.88286,8.75584 -8.75586,8.75586 H 301.57422 v 2.5 H 498.625 c 6.21475,0 11.25586,-5.04111 11.25586,-11.25586 z" />
  <path
     id="path1792"
     style="color:#000000;opacity:1;fill:#ffbd59;stroke:#ffbd59;stroke-width:0.035;stroke-miterlimit:4;stroke-dasharray:none;stroke-opacity:1"
     d="m 252.08789,27.890625 c -6.21475,0 -11.25586,5.04307 -11.25586,11.257813 v 81.029292 h 2.5 V 39.148438 c 0,-4.872985 3.88286,-8.757813 8.75586,-8.757813 H 498.625 c 4.873,0 8.75586,3.884828 8.75586,8.757813 v 29.541015 h 2.5 V 39.148438 c 0,-6.214743 -5.04111,-11.257813 -11.25586,-11.257813 z" />
  <path
     id="path1571"
     style="opacity:1;fill:none;stroke:#ffbd59;stroke-width:3.5;stroke-miterlimit:4;stroke-dasharray:none;stroke-opacity:1"
     d="M 257.14594,120.17752 V 55.84361 c 0,-3.85254 3.10149,-6.95403 6.95403,-6.95403 v 0 h 222.1327 c 3.85253,0 6.95402,3.10149 6.95402,6.95403 l 10e-6,12.845689" />
  <path
     id="path44648"
     style="opacity:1;fill:none;stroke:#ffbd59;stroke-width:3.5;stroke-miterlimit:4;stroke-dasharray:none;stroke-opacity:1"
     d="m 411.69558,179.51234 -110.12102,1e-5" />
  <path
     id="rect8000"
     style="opacity:1;fill:none;stroke:#ffbd59;stroke-width:3.5;stroke-miterlimit:4;stroke-dasharray:none"
     d="m 374.90152,196.5122 c 2.84323,0 5.13218,2.1209 5.13218,4.75538 0,2.63448 -2.28895,4.75538 -5.13218,4.75538 -2.84322,0 -5.13217,-2.1209 -5.13217,-4.75538 0,-2.63448 2.28895,-4.75538 5.13217,-4.75538 z" />
  <path
     id="rect8000-5"
     style="opacity:1;fill:none;stroke:#ffbd59;stroke-width:3.5;stroke-miterlimit:4;stroke-dasharray:none"
     d="m 443.54628,104.2728 c 7.76332,0 14.01321,5.79104 14.01321,12.98438 0,7.19334 -6.24989,12.98437 -14.01321,12.98437 -7.7633,0 -14.01319,-5.79103 -14.01319,-12.98437 0,-7.19334 6.24989,-12.98438 14.01319,-12.98438 z" />
  <path
     id="rect8000-8"
     style="opacity:1;fill:#ffbd59;fill-opacity:1;stroke:#ffbd59;stroke-width:2.80482;stroke-miterlimit:4;stroke-dasharray:none"
     d="m 432.03902,75.337902 c 2.2785,0 4.11281,1.699641 4.11281,3.810852 0,2.111212 -1.83431,3.810853 -4.11281,3.810853 -2.27849,0 -4.1128,-1.699641 -4.1128,-3.810853 0,-2.111211 1.83431,-3.810852 4.1128,-3.810852 z" />
  <path
     style="opacity:1;fill:#f9b65f;fill-opacity:1;stroke:#ffbd59;stroke-width:3.5;stroke-linecap:butt;stroke-linejoin:miter;stroke-miterlimit:4;stroke-dasharray:none;stroke-opacity:1"
     d="m 356.164,218.18204 -1.50358,32.81502"
     id="path8328" />
  <path
     style="opacity:1;fill:#f9b65f;fill-opacity:1;stroke:#ffbd59;stroke-width:3.5;stroke-linecap:butt;stroke-linejoin:miter;stroke-miterlimit:4;stroke-dasharray:none;stroke-opacity:1"
     d="m 394.6156,218.18204 2.59599,33.56306"
     id="path8330" />
  <path
     id="rect8354"
     style="opacity:1;fill:none;stroke:#ffbd59;stroke-width:4.18375;stroke-miterlimit:4;stroke-dasharray:none"
     d="m 341.05168,253.02136 h 67.54035 c 1.88552,0 3.40347,2.20904 3.40347,4.95301 0,2.74397 -1.51795,4.95302 -3.40347,4.95302 h -67.54035 c -1.88552,0 -3.40347,-2.20905 -3.40347,-4.95302 0,-2.74397 1.51795,-4.95301 3.40347,-4.95301 z" />
  <path
     d="m 613.23111,232.85847 c 8.47794,0 15.35067,6.87273 15.35067,15.35067 0,8.47794 -6.87273,15.35067 -15.35067,15.35067 h -63.01566 c -0.86216,0 -1.56108,-0.69891 -1.56108,-1.56107 v -2.41599 c 0,-1.09233 0.8444,-1.99882 1.93398,-2.0762 7.15377,-0.50811 10.95364,-3.65073 10.95364,-9.29741 0,-5.64669 -3.79987,-8.78931 -10.95365,-9.29741 -1.08958,-0.0774 -1.93397,-0.98388 -1.93397,-2.0762 v -2.41599 c 0,-0.86216 0.69892,-1.56107 1.56108,-1.56107 z"
     id="Rectangle-17-1"
     stroke="#7510f7"
     stroke-width="2.08143"
     fill="#ffffff"
     sodipodi:nodetypes="sssssssssssss"
     style="fill:none;stroke:#ffbd59;stroke-width:3.5;stroke-miterlimit:4;stroke-dasharray:none;stroke-opacity:1" />
  <path
     d="m 549.43608,258.16034 c 0,0.25182 0.20427,0.45595 0.45624,0.45595 v 0 h 7.37675 56.21201 c 5.75139,0 10.41382,-4.65944 10.41382,-10.40715 0,-5.74771 -4.66243,-10.40715 -10.41382,-10.40715 h -56.21201 -7.37675 v 0 c -0.25197,0 -0.45624,0.20413 -0.45624,0.45595"
     id="Rectangle-19-4"
     stroke="#7510f7"
     stroke-width="2.08143"
     sodipodi:nodetypes="csccsssccsc"
     style="fill:none;stroke:#ffbd59;stroke-width:3.5;stroke-miterlimit:4;stroke-dasharray:none;stroke-opacity:1" />
  <rect
     id="Rectangle-18-8"
     fill="#7510f7"
     x="-615.56384"
     y="243.78612"
     width="54.672558"
     height="2.08143"
     rx="1.040715"
     style="fill:none;stroke:#ffbd59;stroke-width:1.5;stroke-miterlimit:4;stroke-dasharray:none;stroke-opacity:1"
     transform="scale(-1,1)" />
  <rect
     id="rect147-1"
     fill="#7510f7"
     x="-615.56384"
     y="250.29057"
     width="54.672558"
     height="2.08143"
     rx="1.040715"
     style="fill:none;stroke:#ffbd59;stroke-width:1.5;stroke-miterlimit:4;stroke-dasharray:none;stroke-opacity:1"
     transform="scale(-1,1)" />
  <path
     style="opacity:1;fill:none;fill-opacity:1;stroke:#ffbd59;stroke-width:2.5;stroke-miterlimit:4;stroke-dasharray:none"
     d="m 504.70638,261.13249 c -0.56479,-5.47222 -4.1833,-10.52962 -9.35575,-13.07601 -2.68399,-1.32132 -3.41431,-1.47723 -6.87871,-1.46843 -3.22008,0.008 -4.31268,0.21294 -6.45732,1.21013 -5.37411,2.49878 -9.32602,7.81268 -9.81422,13.19657 l -0.23945,2.64084 h 16.50189 16.5019 z M 473.90672,260.76 c 0,-5.15887 5.98304,-11.4807 11.7361,-12.40065 1.55021,-0.24789 1.81095,-0.16141 2.02914,0.67295 0.32274,1.23409 1.25808,1.23409 1.58079,0 0.21856,-0.83577 0.47795,-0.921 2.04189,-0.67091 2.78595,0.44549 5.94506,2.27574 8.13338,4.71212 1.96138,2.18371 3.59666,5.69772 3.59222,7.71918 l -0.002,1.02344 h -14.55563 -14.55564 z m 4.74854,28.4891"
     id="path7549"
     sodipodi:nodetypes="sscsscccscsssssccccc" />
  <g
     id="g41968"
     transform="translate(-100.64468,-546.20631)"
     style="opacity:1;stroke-width:3.5;stroke-miterlimit:4;stroke-dasharray:none">
    <path
       id="Oval-8-8"
       style="fill:none;stroke:#ffbd59;stroke-width:3.5;stroke-miterlimit:4;stroke-dasharray:none;stroke-opacity:1"
       d="m 130.43404,768.10542 a 15.620731,15.610724 0 0 0 -13.74138,15.49734 v 0 a 15.620731,15.610724 0 0 0 13.7411,15.49729" />
    <path
       id="ellipse132-8"
       style="fill:none;stroke:#ffbd59;stroke-width:3.5;stroke-miterlimit:4;stroke-dasharray:none;stroke-opacity:1"
       d="m 130.48888,774.68091 a 9.112093,9.1062565 0 0 0 -7.28758,8.92185 v 0 a 9.112093,9.1062565 0 0 0 7.28273,8.92085" />
    <path
       d="m 176.21361,759.26887 c 0.57477,0 1.04072,0.46595 1.04072,1.04072 v 43.71003 c 0,2.87386 -2.32972,5.20358 -5.20358,5.20358 h -35.91737 c -2.87385,0 -5.20357,-2.32972 -5.20357,-5.20358 v -43.71003 c 0,-0.57477 0.46594,-1.04072 1.04071,-1.04072 z"
       id="Rectangle-16-5"
       stroke="#7510f7"
       stroke-width="2.08143"
       fill="#ffffff"
       style="fill:none;stroke:#ffbd59;stroke-width:3.5;stroke-miterlimit:4;stroke-dasharray:none;stroke-opacity:1" />
  </g>
  <path
     style="opacity:1;fill:none;stroke:#ffbd59;stroke-width:3.5;stroke-linecap:butt;stroke-linejoin:miter;stroke-miterlimit:4;stroke-dasharray:none;stroke-opacity:1"
     d="m 52.105209,201.9881 c -5.789467,-15.86743 7.076016,-31.41322 0,-47.60229"
     id="path44844"
     sodipodi:nodetypes="cc" />
  <path
     style="opacity:1;fill:none;stroke:#ffbd59;stroke-width:3.5;stroke-linecap:butt;stroke-linejoin:miter;stroke-miterlimit:4;stroke-dasharray:none;stroke-opacity:1"
     d="m 39.239725,204.56119 c 3.859645,-8.79141 -3.859645,-18.86937 0,-28.30406"
     id="path44846"
     sodipodi:nodetypes="cc" />
  <path
     style="opacity:1;fill:none;stroke:#ffbd59;stroke-width:3.5;stroke-linecap:butt;stroke-linejoin:miter;stroke-miterlimit:4;stroke-dasharray:none;stroke-opacity:1"
     d="m 66.257241,172.39748 c -3.859645,11.2573 4.824556,21.87133 0,32.80699"
     id="path44848"
     sodipodi:nodetypes="cc" />
  <path
     style="opacity:1;fill:none;stroke:#ffbd59;stroke-width:3.5;stroke-linecap:butt;stroke-linejoin:miter;stroke-miterlimit:4;stroke-dasharray:none;stroke-opacity:1"
     d="M 411.69547,90.561303 H 584.73622"
     id="path1991" />
  <path
     id="path2158"
     style="opacity:1;fill:#ffbd59;fill-opacity:1;stroke:#ffbd59;stroke-width:2.80482;stroke-miterlimit:4;stroke-dasharray:none"
     d="m 445.4249,75.337902 c 2.2785,0 4.11281,1.699641 4.11281,3.810852 0,2.111212 -1.83431,3.810853 -4.11281,3.810853 -2.27849,0 -4.1128,-1.699641 -4.1128,-3.810853 0,-2.111211 1.83431,-3.810852 4.1128,-3.810852 z" />
  <path
     id="path2172"
     style="opacity:1;fill:#ffbd59;fill-opacity:1;stroke:#ffbd59;stroke-width:2.80482;stroke-miterlimit:4;stroke-dasharray:none"
     d="m 458.55064,75.337902 c 2.2785,0 4.11281,1.699641 4.11281,3.810852 0,2.111212 -1.83431,3.810853 -4.11281,3.810853 -2.27849,0 -4.1128,-1.699641 -4.1128,-3.810853 0,-2.111211 1.83431,-3.810852 4.1128,-3.810852 z" />
  <path
     style="opacity:1;fill:none;stroke:#000000;stroke-width:1px;stroke-linecap:butt;stroke-linejoin:miter;stroke-opacity:1"
     d="m 411.85629,117.418 h 17.85086"
     id="path2487" />
  <path
     style="opacity:1;fill:none;stroke:#ffbd59;stroke-width:3.5;stroke-linecap:butt;stroke-linejoin:miter;stroke-miterlimit:4;stroke-dasharray:none;stroke-opacity:1"
     d="m 411.85629,117.418 h 17.85086"
     id="path2578" />
  <path
     style="fill:none;stroke:#ffbd59;stroke-width:3.5;stroke-linecap:butt;stroke-linejoin:miter;stroke-miterlimit:4;stroke-dasharray:none;stroke-opacity:1"
     d="m 425.28464,145.27049 h 37.851"
     id="path2578-4" />
  <path
     style="opacity:1;fill:none;stroke:#ffbd59;stroke-width:3.5;stroke-linecap:butt;stroke-linejoin:miter;stroke-miterlimit:4;stroke-dasharray:none;stroke-opacity:1"
     d="m 457.70715,117.418 h 126.5642"
     id="path2613" />
  <rect
     style="opacity:1;fill:none;fill-opacity:1;stroke:#ffbd59;stroke-width:3.378;stroke-miterlimit:4;stroke-dasharray:none"
     id="rect1121"
     width="172.63322"
     height="129.14307"
     x="412.30341"
     y="68.422195"
     ry="12.62732" />
  <path
     id="rect8000-8-0"
     style="fill:#ffbd59;fill-opacity:1;stroke:#ffbd59;stroke-width:3.05651;stroke-miterlimit:4;stroke-dasharray:none"
     d="m 109.31226,48.437947 c 2.48532,0 4.48614,1.850402 4.48614,4.148881 0,2.29848 -2.00082,4.148882 -4.48614,4.148882 -2.48532,0 -4.48614,-1.850402 -4.48614,-4.148882 0,-2.298479 2.00082,-4.148881 4.48614,-4.148881 z" />
  <path
     style="fill:none;stroke:#ffbd59;stroke-width:3.18433;stroke-linecap:butt;stroke-linejoin:miter;stroke-miterlimit:4;stroke-dasharray:none;stroke-opacity:1"
     d="M 87.122041,65.011689 H 218.68664"
     id="path1991-0" />
  <path
     id="path2158-5"
     style="fill:#ffbd59;fill-opacity:1;stroke:#ffbd59;stroke-width:3.05651;stroke-miterlimit:4;stroke-dasharray:none"
     d="m 123.91323,48.437947 c 2.48532,0 4.48614,1.850402 4.48614,4.148881 0,2.29848 -2.00082,4.148882 -4.48614,4.148882 -2.48532,0 -4.48614,-1.850402 -4.48614,-4.148882 0,-2.298479 2.00082,-4.148881 4.48614,-4.148881 z" />
  <path
     id="path2172-6"
     style="fill:#ffbd59;fill-opacity:1;stroke:#ffbd59;stroke-width:3.05651;stroke-miterlimit:4;stroke-dasharray:none"
     d="m 138.23044,48.437947 c 2.48533,0 4.48615,1.850402 4.48615,4.148881 0,2.29848 -2.00082,4.148882 -4.48615,4.148882 -2.48532,0 -4.48613,-1.850402 -4.48613,-4.148882 0,-2.298479 2.00081,-4.148881 4.48613,-4.148881 z" />
  <rect
     style="fill:none;fill-opacity:1;stroke:#ffbd59;stroke-width:3.07333;stroke-miterlimit:4;stroke-dasharray:none"
     id="rect1121-2"
     width="131.25475"
     height="140.59827"
     x="87.584267"
     y="40.90881"
     ry="13.747385" />
  <path
     style="fill:none;stroke:#ffbd59;stroke-width:3.5;stroke-linecap:butt;stroke-linejoin:miter;stroke-miterlimit:4;stroke-dasharray:none;stroke-opacity:1"
     d="m 425.28464,145.27049 h 37.851"
     id="path2816" />
  <path
     style="fill:none;stroke:#ffbd59;stroke-width:3.5;stroke-linecap:butt;stroke-linejoin:miter;stroke-miterlimit:4;stroke-dasharray:none;stroke-opacity:1"
     d="m 98.863852,78.77184 h 8.260388"
     id="path2816-1"
     inkscape:transform-center-x="-38.886505"
     inkscape:transform-center-y="31.520434" />
  <path
     style="fill:none;stroke:#ffbd59;stroke-width:3.5;stroke-linecap:butt;stroke-linejoin:miter;stroke-miterlimit:4;stroke-dasharray:none;stroke-opacity:1"
     d="m 491.19093,134.30395 h 62.29542"
     id="path2816-7" />
  <path
     style="fill:none;stroke:#ffbd59;stroke-width:3.5;stroke-linecap:butt;stroke-linejoin:miter;stroke-miterlimit:4;stroke-dasharray:none;stroke-opacity:1"
     d="m 425.28464,157.27049 h 37.851"
     id="path2831" />
  <path
     style="fill:none;stroke:#ffbd59;stroke-width:3.5;stroke-linecap:butt;stroke-linejoin:miter;stroke-miterlimit:4;stroke-dasharray:none;stroke-opacity:1"
     d="m 425.28464,169.27049 h 37.851"
     id="path2833" />
  <path
     style="fill:none;stroke:#ffbd59;stroke-width:3.5;stroke-linecap:butt;stroke-linejoin:miter;stroke-miterlimit:4;stroke-dasharray:none;stroke-opacity:1"
     d="m 425.28464,181.27049 h 37.851"
     id="path2835" />
  <rect
     style="opacity:1;fill:none;fill-opacity:1;stroke:#ffbd59;stroke-width:3.5;stroke-miterlimit:4;stroke-dasharray:none;stroke-opacity:1"
     id="rect2862"
     width="86.724907"
     height="37.474293"
     x="480.09732"
     y="145.17285" />
  <path
     style="fill:none;stroke:#ffbd59;stroke-width:3.5;stroke-linecap:butt;stroke-linejoin:miter;stroke-miterlimit:4;stroke-dasharray:none;stroke-opacity:1"
     d="m 110.86385,78.77184 h 32.70481"
     id="path3810"
     inkscape:transform-center-x="-153.96079"
     inkscape:transform-center-y="31.520434" />
  <path
     style="fill:none;stroke:#ffbd59;stroke-width:3.5;stroke-linecap:butt;stroke-linejoin:miter;stroke-miterlimit:4;stroke-dasharray:none;stroke-opacity:1"
     d="m 147.37845,78.77184 h 15.3364"
     id="path3821"
     inkscape:transform-center-x="-72.197488"
     inkscape:transform-center-y="31.520434" />
  <path
     style="fill:none;stroke:#ffbd59;stroke-width:3.5;stroke-linecap:butt;stroke-linejoin:miter;stroke-miterlimit:4;stroke-dasharray:none;stroke-opacity:1"
     d="m 168.86385,78.77184 h 8.26039"
     id="path3823"
     inkscape:transform-center-x="-38.886505"
     inkscape:transform-center-y="31.520434" />
  <path
     style="fill:none;stroke:#ffbd59;stroke-width:3.5;stroke-linecap:butt;stroke-linejoin:miter;stroke-miterlimit:4;stroke-dasharray:none;stroke-opacity:1"
     d="m 186.86385,78.77184 h 8.26039"
     id="path3825"
     inkscape:transform-center-x="-38.886505"
     inkscape:transform-center-y="31.520434" />
  <path
     style="fill:none;stroke:#ffbd59;stroke-width:3.5;stroke-linecap:butt;stroke-linejoin:miter;stroke-miterlimit:4;stroke-dasharray:none;stroke-opacity:1"
     d="m 98.863852,78.77184 h 8.260388"
     id="path3863"
     inkscape:transform-center-x="-38.886505"
     inkscape:transform-center-y="31.520434" />
  <path
     style="fill:none;stroke:#ffbd59;stroke-width:3.5;stroke-linecap:butt;stroke-linejoin:miter;stroke-miterlimit:4;stroke-dasharray:none;stroke-opacity:1"
     d="m 110.86385,78.77184 h 32.70481"
     id="path3865"
     inkscape:transform-center-x="-153.96079"
     inkscape:transform-center-y="31.520434" />
  <path
     style="fill:none;stroke:#ffbd59;stroke-width:3.5;stroke-linecap:butt;stroke-linejoin:miter;stroke-miterlimit:4;stroke-dasharray:none;stroke-opacity:1"
     d="m 147.37845,78.77184 h 15.3364"
     id="path3867"
     inkscape:transform-center-x="-72.197488"
     inkscape:transform-center-y="31.520434" />
  <path
     style="fill:none;stroke:#ffbd59;stroke-width:3.5;stroke-linecap:butt;stroke-linejoin:miter;stroke-miterlimit:4;stroke-dasharray:none;stroke-opacity:1"
     d="m 168.86385,78.77184 h 8.26039"
     id="path3869"
     inkscape:transform-center-x="-38.886505"
     inkscape:transform-center-y="31.520434" />
  <path
     style="fill:none;stroke:#ffbd59;stroke-width:3.5;stroke-linecap:butt;stroke-linejoin:miter;stroke-miterlimit:4;stroke-dasharray:none;stroke-opacity:1"
     d="m 186.86385,78.77184 h 8.26039"
     id="path3871"
     inkscape:transform-center-x="-38.886505"
     inkscape:transform-center-y="31.520434" />
  <path
     style="fill:none;stroke:#ffbd59;stroke-width:3.5;stroke-linecap:butt;stroke-linejoin:miter;stroke-miterlimit:4;stroke-dasharray:none;stroke-opacity:1"
     d="m 98.863852,90.77184 h 8.260388"
     id="path3933"
     inkscape:transform-center-x="-38.886505"
     inkscape:transform-center-y="31.520434" />
  <path
     style="fill:none;stroke:#ffbd59;stroke-width:3.5;stroke-linecap:butt;stroke-linejoin:miter;stroke-miterlimit:4;stroke-dasharray:none;stroke-opacity:1"
     d="m 147.37845,90.77184 h 15.3364"
     id="path3937"
     inkscape:transform-center-x="-72.197488"
     inkscape:transform-center-y="31.520434" />
  <path
     style="fill:none;stroke:#ffbd59;stroke-width:3.5;stroke-linecap:butt;stroke-linejoin:miter;stroke-miterlimit:4;stroke-dasharray:none;stroke-opacity:1"
     d="m 168.86385,90.77184 h 8.26039"
     id="path3939"
     inkscape:transform-center-x="-38.886505"
     inkscape:transform-center-y="31.520434" />
  <path
     style="fill:none;stroke:#ffbd59;stroke-width:3.5;stroke-linecap:butt;stroke-linejoin:miter;stroke-miterlimit:4;stroke-dasharray:none;stroke-opacity:1"
     d="m 134.86385,90.77184 h 8.26039"
     id="path3943"
     inkscape:transform-center-x="-38.886505"
     inkscape:transform-center-y="31.520434" />
  <path
     style="fill:none;stroke:#ffbd59;stroke-width:3.5;stroke-linecap:butt;stroke-linejoin:miter;stroke-miterlimit:4;stroke-dasharray:none;stroke-opacity:1"
     d="m 113.37845,90.77184 h 15.3364"
     id="path3947"
     inkscape:transform-center-x="-72.197488"
     inkscape:transform-center-y="31.520434" />
  <path
     style="fill:none;stroke:#ffbd59;stroke-width:3.5;stroke-linecap:butt;stroke-linejoin:miter;stroke-miterlimit:4;stroke-dasharray:none;stroke-opacity:1"
     d="m 168.86385,90.77184 h 8.26039"
     id="path3949"
     inkscape:transform-center-x="-38.886505"
     inkscape:transform-center-y="31.520434" />
  <path
     style="fill:none;stroke:#ffbd59;stroke-width:3.5;stroke-linecap:butt;stroke-linejoin:miter;stroke-miterlimit:4;stroke-dasharray:none;stroke-opacity:1"
     d="m 112.86385,102.77184 h 32.70481"
     id="path3955"
     inkscape:transform-center-x="-153.96079"
     inkscape:transform-center-y="31.520434" />
  <path
     style="fill:none;stroke:#ffbd59;stroke-width:3.5;stroke-linecap:butt;stroke-linejoin:miter;stroke-miterlimit:4;stroke-dasharray:none;stroke-opacity:1"
     d="m 168.86385,102.77184 h 8.26039"
     id="path3959"
     inkscape:transform-center-x="-38.886505"
     inkscape:transform-center-y="31.520434" />
  <path
     style="fill:none;stroke:#ffbd59;stroke-width:3.5;stroke-linecap:butt;stroke-linejoin:miter;stroke-miterlimit:4;stroke-dasharray:none;stroke-opacity:1"
     d="m 152.86385,102.77184 h 8.26039"
     id="path3969"
     inkscape:transform-center-x="-38.886505"
     inkscape:transform-center-y="31.520434" />
  <path
     style="fill:none;stroke:#ffbd59;stroke-width:3.5;stroke-linecap:butt;stroke-linejoin:miter;stroke-miterlimit:4;stroke-dasharray:none;stroke-opacity:1"
     d="m 170.86385,102.77184 h 8.26039"
     id="path3971"
     inkscape:transform-center-x="-38.886505"
     inkscape:transform-center-y="31.520434" />
  <path
     style="fill:none;stroke:#ffbd59;stroke-width:3.5;stroke-linecap:butt;stroke-linejoin:miter;stroke-miterlimit:4;stroke-dasharray:none;stroke-opacity:1"
     d="m 98.863852,114.77184 h 8.260388"
     id="path3973"
     inkscape:transform-center-x="-38.886505"
     inkscape:transform-center-y="31.520434" />
  <path
     style="fill:none;stroke:#ffbd59;stroke-width:3.5;stroke-linecap:butt;stroke-linejoin:miter;stroke-miterlimit:4;stroke-dasharray:none;stroke-opacity:1"
     d="m 152.86385,114.77184 h 8.26039"
     id="path3979"
     inkscape:transform-center-x="-38.886505"
     inkscape:transform-center-y="31.520434" />
  <path
     style="fill:none;stroke:#ffbd59;stroke-width:3.5;stroke-linecap:butt;stroke-linejoin:miter;stroke-miterlimit:4;stroke-dasharray:none;stroke-opacity:1"
     d="m 170.86385,114.77184 h 8.26039"
     id="path3981"
     inkscape:transform-center-x="-38.886505"
     inkscape:transform-center-y="31.520434" />
  <path
     style="fill:none;stroke:#ffbd59;stroke-width:3.5;stroke-linecap:butt;stroke-linejoin:miter;stroke-miterlimit:4;stroke-dasharray:none;stroke-opacity:1"
     d="m 98.863852,114.77184 h 8.260388"
     id="path3983"
     inkscape:transform-center-x="-38.886505"
     inkscape:transform-center-y="31.520434" />
  <path
     style="fill:none;stroke:#ffbd59;stroke-width:3.5;stroke-linecap:butt;stroke-linejoin:miter;stroke-miterlimit:4;stroke-dasharray:none;stroke-opacity:1"
     d="m 116.86385,114.77184 h 8.26039"
     id="path3989"
     inkscape:transform-center-x="-38.886505"
     inkscape:transform-center-y="31.520434" />
  <path
     style="fill:none;stroke:#ffbd59;stroke-width:3.5;stroke-linecap:butt;stroke-linejoin:miter;stroke-miterlimit:4;stroke-dasharray:none;stroke-opacity:1"
     d="m 134.86385,114.77184 h 8.26039"
     id="path3991"
     inkscape:transform-center-x="-38.886505"
     inkscape:transform-center-y="31.520434" />
  <path
     style="fill:none;stroke:#ffbd59;stroke-width:3.5;stroke-linecap:butt;stroke-linejoin:miter;stroke-miterlimit:4;stroke-dasharray:none;stroke-opacity:1"
     d="m 110.86385,126.77184 h 32.70481"
     id="path3995"
     inkscape:transform-center-x="-153.96079"
     inkscape:transform-center-y="31.520434" />
  <path
     style="fill:none;stroke:#ffbd59;stroke-width:3.5;stroke-linecap:butt;stroke-linejoin:miter;stroke-miterlimit:4;stroke-dasharray:none;stroke-opacity:1"
     d="m 147.37845,126.77184 h 15.3364"
     id="path3997"
     inkscape:transform-center-x="-72.197488"
     inkscape:transform-center-y="31.520434" />
  <path
     style="fill:none;stroke:#ffbd59;stroke-width:3.5;stroke-linecap:butt;stroke-linejoin:miter;stroke-miterlimit:4;stroke-dasharray:none;stroke-opacity:1"
     d="m 168.86385,126.77184 h 8.26039"
     id="path3999"
     inkscape:transform-center-x="-38.886505"
     inkscape:transform-center-y="31.520434" />
  <path
     style="fill:none;stroke:#ffbd59;stroke-width:3.5;stroke-linecap:butt;stroke-linejoin:miter;stroke-miterlimit:4;stroke-dasharray:none;stroke-opacity:1"
     d="m 178.86385,126.77184 h 8.26039"
     id="path4001"
     inkscape:transform-center-x="-38.886505"
     inkscape:transform-center-y="31.520434" />
  <path
     style="fill:none;stroke:#ffbd59;stroke-width:3.5;stroke-linecap:butt;stroke-linejoin:miter;stroke-miterlimit:4;stroke-dasharray:none;stroke-opacity:1"
     d="m 116.86385,126.77184 h 8.26039"
     id="path4003"
     inkscape:transform-center-x="-38.886505"
     inkscape:transform-center-y="31.520434" />
  <path
     style="fill:none;stroke:#ffbd59;stroke-width:3.5;stroke-linecap:butt;stroke-linejoin:miter;stroke-miterlimit:4;stroke-dasharray:none;stroke-opacity:1"
     d="m 128.86385,126.77184 h 32.70481"
     id="path4005"
     inkscape:transform-center-x="-153.96079"
     inkscape:transform-center-y="31.520434" />
  <path
     style="fill:none;stroke:#ffbd59;stroke-width:3.5;stroke-linecap:butt;stroke-linejoin:miter;stroke-miterlimit:4;stroke-dasharray:none;stroke-opacity:1"
     d="m 98.863852,138.77184 h 8.260388"
     id="path4013"
     inkscape:transform-center-x="-38.886505"
     inkscape:transform-center-y="31.520434" />
  <path
     style="fill:none;stroke:#ffbd59;stroke-width:3.5;stroke-linecap:butt;stroke-linejoin:miter;stroke-miterlimit:4;stroke-dasharray:none;stroke-opacity:1"
     d="m 156.86385,138.77184 h 32.70481"
     id="path4015"
     inkscape:transform-center-x="-153.96079"
     inkscape:transform-center-y="31.520434" />
  <path
     style="fill:none;stroke:#ffbd59;stroke-width:3.5;stroke-linecap:butt;stroke-linejoin:miter;stroke-miterlimit:4;stroke-dasharray:none;stroke-opacity:1"
     d="m 112.86385,138.77184 h 8.26039"
     id="path4019"
     inkscape:transform-center-x="-38.886505"
     inkscape:transform-center-y="31.520434" />
  <path
     style="fill:none;stroke:#ffbd59;stroke-width:3.5;stroke-linecap:butt;stroke-linejoin:miter;stroke-miterlimit:4;stroke-dasharray:none;stroke-opacity:1"
     d="m 128.86385,138.77184 h 8.26039"
     id="path4021"
     inkscape:transform-center-x="-38.886505"
     inkscape:transform-center-y="31.520434" />
  <path
     style="fill:none;stroke:#ffbd59;stroke-width:3.5;stroke-linecap:butt;stroke-linejoin:miter;stroke-miterlimit:4;stroke-dasharray:none;stroke-opacity:1"
     d="m 98.863852,138.77184 h 8.260388"
     id="path4023"
     inkscape:transform-center-x="-38.886505"
     inkscape:transform-center-y="31.520434" />
  <path
     style="fill:none;stroke:#ffbd59;stroke-width:3.5;stroke-linecap:butt;stroke-linejoin:miter;stroke-miterlimit:4;stroke-dasharray:none;stroke-opacity:1"
     d="m 186.86385,150.77184 h 8.26039"
     id="path4041"
     inkscape:transform-center-x="-38.886505"
     inkscape:transform-center-y="31.520434" />
  <path
     style="fill:none;stroke:#ffbd59;stroke-width:3.5;stroke-linecap:butt;stroke-linejoin:miter;stroke-miterlimit:4;stroke-dasharray:none;stroke-opacity:1"
     d="m 98.863852,150.77184 h 8.260388"
     id="path4043"
     inkscape:transform-center-x="-38.886505"
     inkscape:transform-center-y="31.520434" />
  <path
     style="fill:none;stroke:#ffbd59;stroke-width:3.5;stroke-linecap:butt;stroke-linejoin:miter;stroke-miterlimit:4;stroke-dasharray:none;stroke-opacity:1"
     d="m 110.86385,150.77184 h 32.70481"
     id="path4045"
     inkscape:transform-center-x="-153.96079"
     inkscape:transform-center-y="31.520434" />
  <path
     style="fill:none;stroke:#ffbd59;stroke-width:3.5;stroke-linecap:butt;stroke-linejoin:miter;stroke-miterlimit:4;stroke-dasharray:none;stroke-opacity:1"
     d="m 147.37845,150.77184 h 15.3364"
     id="path4047"
     inkscape:transform-center-x="-72.197488"
     inkscape:transform-center-y="31.520434" />
  <path
     style="fill:none;stroke:#ffbd59;stroke-width:3.5;stroke-linecap:butt;stroke-linejoin:miter;stroke-miterlimit:4;stroke-dasharray:none;stroke-opacity:1"
     d="m 168.86385,150.77184 h 8.26039"
     id="path4049"
     inkscape:transform-center-x="-38.886505"
     inkscape:transform-center-y="31.520434" />
  <path
     style="fill:none;stroke:#ffbd59;stroke-width:3.5;stroke-linecap:butt;stroke-linejoin:miter;stroke-miterlimit:4;stroke-dasharray:none;stroke-opacity:1"
     d="m 184.86385,102.77184 h 8.26039"
     id="path4873"
     inkscape:transform-center-x="-38.886505"
     inkscape:transform-center-y="31.520434" />
  <path
     style="fill:none;stroke:#ffbd59;stroke-width:3.5;stroke-linecap:butt;stroke-linejoin:miter;stroke-miterlimit:4;stroke-dasharray:none;stroke-opacity:1"
     d="m 142.86385,138.77184 h 8.26039"
     id="path6075"
     inkscape:transform-center-x="-38.886505"
     inkscape:transform-center-y="31.520434" />
  <rect
     style="opacity:1;fill:none;fill-opacity:1;stroke:#ffbd59;stroke-width:3.5;stroke-miterlimit:4;stroke-dasharray:none;stroke-opacity:1"
     id="rect6898"
     width="64.173592"
     height="5.5803123"
     x="169.5795"
     y="251.11406"
     ry="2.7901561" />
</svg>
