<?xml version="1.0" encoding="UTF-8" standalone="no"?>
<!-- Created with Inkscape (http://www.inkscape.org/) -->

<svg
   width="200"
   height="85"
   viewBox="0 0 52.916666 22.489584"
   version="1.1"
   id="svg122231"
   inkscape:version="1.1.2 (b8e25be833, 2022-02-05)"
   sodipodi:docname="logo.svg"
   xmlns:inkscape="http://www.inkscape.org/namespaces/inkscape"
   xmlns:sodipodi="http://sodipodi.sourceforge.net/DTD/sodipodi-0.dtd"
   xmlns="http://www.w3.org/2000/svg"
   xmlns:svg="http://www.w3.org/2000/svg">
  <sodipodi:namedview
     id="namedview122233"
     pagecolor="#ffffff"
     bordercolor="#666666"
     borderopacity="1.0"
     inkscape:pageshadow="2"
     inkscape:pageopacity="0.0"
     inkscape:pagecheckerboard="0"
     inkscape:document-units="mm"
     showgrid="false"
     units="px"
     inkscape:zoom="4.0214615"
     inkscape:cx="92.255017"
     inkscape:cy="70.496758"
     inkscape:window-width="1920"
     inkscape:window-height="991"
     inkscape:window-x="-9"
     inkscape:window-y="-9"
     inkscape:window-maximized="1"
     inkscape:current-layer="layer1" />
  <defs
     id="defs122228" />
  <g
     inkscape:label="Camada 1"
     inkscape:groupmode="layer"
     id="layer1">
    <g
       id="g843">
      <g
         id="g22292"
         transform="matrix(0.13336775,0,0,0.13359238,-19.36669,-12.989416)">
        <path
           style="opacity:0.8;fill:#ffdaa3;fill-opacity:1;stroke:none;stroke-width:1.04319px;stroke-linecap:butt;stroke-linejoin:miter;stroke-opacity:1"
           d="m 145.80318,165.27803 -0.519,81.10926 c 0,0 43.21326,0.89625 65.91303,-0.30592 54.42265,-2.8822 52.37546,-79.90711 -2.59587,-81.25138 -19.86076,-0.48568 -62.79906,0.30592 -62.79906,0.30592 z"
           id="path845-3"
           sodipodi:nodetypes="ccsscc" />
        <path
           style="opacity:0.75;fill:#a3d7ff;fill-opacity:1;stroke:none;stroke-width:0.987097px;stroke-linecap:butt;stroke-linejoin:miter;stroke-opacity:1"
           d="m 145.9899,112.89381 -0.44798,84.13559 c 0,0 37.29952,0.92969 56.89284,-0.31734 46.9749,-2.98974 45.20787,-82.88858 -2.24062,-84.28301 -17.14283,-0.5038 -54.20502,0.31734 -54.20502,0.31734 z"
           id="path845"
           sodipodi:nodetypes="ccsscc" />
      </g>
      <text
         xml:space="preserve"
         style="font-style:normal;font-weight:normal;font-size:14.0962px;line-height:1.25;font-family:sans-serif;fill:#7e7e7e;fill-opacity:1;stroke:none;stroke-width:0.16519"
         x="14.263793"
         y="18.249184"
         id="text23836"
         transform="scale(0.9991589,1.0008418)"><tspan
           sodipodi:role="line"
           id="tspan23834"
           x="14.263793"
           y="18.249184"
           style="font-style:normal;font-variant:normal;font-weight:bold;font-stretch:normal;font-size:14.0962px;font-family:Consolas;-inkscape-font-specification:'Consolas, Bold';font-variant-ligatures:normal;font-variant-caps:normal;font-variant-numeric:normal;font-variant-east-asian:normal;fill:#7e7e7e;fill-opacity:1;stroke-width:0.16519">RUNO</tspan></text>
      <path
         style="fill:none;stroke:#ffbd59;stroke-width:0.580661;stroke-linecap:butt;stroke-linejoin:miter;stroke-miterlimit:4;stroke-dasharray:none;stroke-opacity:1"
         d="M 21.713478,19.636841 H 46.388574 V 10.501825"
         id="path59426" />
      <g
         aria-label="DIAS"
         transform="matrix(-0.74061393,0,0,-1.3502311,-0.52916667,0)"
         id="text23836-6"
         style="font-size:5.17531px;line-height:0.75;fill:#7e7e7e;stroke-width:0.122445">
        <path
           d="m -68.301975,-13.155073 q -0.313349,0 -0.51551,-0.207214 -0.199633,-0.204688 -0.199633,-0.518037 v -0.904668 h 3.954766 v 0.904668 q 0,0.315876 -0.202161,0.520564 -0.199634,0.204687 -0.512982,0.204687 z m 0.03538,-0.351254 h 2.458778 q 0.194579,0 0.313348,-0.123823 0.121297,-0.121297 0.121297,-0.315876 v -0.487712 h -3.333122 v 0.467496 q 0,0.204687 0.116242,0.331038 0.118769,0.128877 0.323457,0.128877 z"
           style="font-family:'Agency FB';-inkscape-font-specification:'Agency FB, Normal';writing-mode:tb-rl"
           id="path122301" />
        <path
           d="m -69.017118,-12.167013 v -0.351254 h 3.954766 v 0.351254 z"
           style="font-family:'Agency FB';-inkscape-font-specification:'Agency FB, Normal';writing-mode:tb-rl"
           id="path122303" />
        <path
           d="M -69.017118,-9.9129232 V -10.26165 l 0.879398,-0.138986 v -0.785899 l -0.879398,-0.138985 v -0.338619 h 0.01011 l 3.954766,0.705035 v 0.3462 z m 1.19022,-0.5331988 2.142902,-0.3462 -2.142902,-0.348727 z"
           style="font-family:'Agency FB';-inkscape-font-specification:'Agency FB, Normal';writing-mode:tb-rl"
           id="path122305" />
        <path
           d="m -68.73662,-7.8963716 q -0.123824,0 -0.202161,-0.078337 -0.07834,-0.07581 -0.07834,-0.1996335 v -0.9956407 q 0,-0.1238234 0.07834,-0.2046876 0.07834,-0.078337 0.202161,-0.078337 h 1.003221 v 0.351254 h -0.972897 v 0.8541283 h 0.942573 l 1.319098,-1.091667 q 0.136458,-0.1137153 0.300714,-0.1137153 h 0.801061 q 0.123823,0 0.20216,0.078337 0.07834,0.080864 0.07834,0.2046876 v 0.9956407 q 0,0.1238233 -0.07834,0.1996335 -0.07834,0.078337 -0.20216,0.078337 h -0.919831 v -0.351254 h 0.889507 v -0.8541283 h -0.833913 l -1.319097,1.096721 q -0.131405,0.1086613 -0.29566,0.1086613 z"
           style="font-family:'Agency FB';-inkscape-font-specification:'Agency FB, Normal';writing-mode:tb-rl"
           id="path122307" />
      </g>
    </g>
  </g>
</svg>
